<svg width="405" height="104" viewBox="0 0 405 104" fill="none" xmlns="http://www.w3.org/2000/svg">
<path d="M77.5649 43.4439C76.4286 46.1427 75.3455 50.9899 74.3157 57.9855C73.3214 64.9456 72.0431 69.9526 70.4806 73.0065L70.5871 75.1371C70.5871 76.309 70.2498 77.25 69.5751 77.9602C69.5751 79.8778 69.1667 82.2925 68.3499 85.2044C67.5687 88.0807 66.6809 90.1581 65.6867 91.4365V92.7149H66.6987C65.6334 93.5671 65.1362 95.3426 65.2073 98.0414C65.2073 98.9647 64.8166 99.9057 64.0354 100.865C63.2542 101.859 61.9758 102.605 60.2003 103.102L59.348 100.651C59.5966 100.332 59.8807 99.8525 60.2003 99.2133C60.5199 98.5741 60.875 98.0414 61.2656 97.6153C59.3835 97.6153 58.3537 98.2367 58.1762 99.4796C57.9986 100.758 56.7912 101.397 54.5541 101.397L53.8084 100.225H52.53L51.1983 99.6394L51.6777 98.0414L50.4526 99.4264V99.5329L49.7069 100.651C48.6416 100.19 48.1089 99.3731 48.1089 98.2012C48.1089 97.0649 47.7716 95.7688 47.0969 94.3128C46.4577 92.8569 46.1381 91.8981 46.1381 91.4365C46.1381 86.8556 45.4811 82.7541 44.1672 79.132L45.126 77.9602C43.4925 77.9602 42.6225 75.1549 42.516 69.5442C42.4805 67.307 42.4095 65.9931 42.3029 65.6025C41.2731 62.1225 40.6162 58.0388 40.3321 53.3514C40.0835 48.6284 39.8704 43.8168 39.6929 38.9163C39.5509 34.0158 39.0892 29.8966 38.308 26.5586L37.2427 27.7837V22.8833C35.7512 20.7526 34.0112 18.9771 32.0226 17.5567C30.0695 16.1362 28.1697 15.426 26.3232 15.426C27.2464 15.3195 30.1228 15.0354 34.9522 14.5738C47.452 13.4374 53.9859 12.745 54.5541 12.4964L56.1521 14.7868L54.5541 13.8281C53.8439 14.6803 53.4888 16.083 53.4888 18.0361V19.9536L54.5541 19.421V20.22L53.8616 21.1788C54.1457 23.2029 54.6784 24.4635 55.4596 24.9606L54.5541 26.1325V28.636C54.5541 31.1217 54.8382 34.7616 55.4063 39.5555C55.9745 44.3139 56.3119 47.5454 56.4184 49.2499L55.4596 48.2378C55.4596 50.7236 55.6194 54.4344 55.939 59.3704C56.2586 64.2709 56.4184 67.964 56.4184 70.4497L58.336 64.3774L57.3772 63.1523C57.5547 62.7972 58.8864 55.1801 61.3721 40.3012C63.8579 25.3868 65.1007 17.7875 65.1007 17.5034L66.166 15.426L66.0062 13.8281H65.1007V12.4964L66.9118 13.8281L68.0304 12.4964C68.9891 13.4552 73.7653 13.9346 82.3589 13.9346H86.993C87.5967 13.9346 88.4312 13.9701 89.4965 14.0411C90.5618 14.0766 91.3963 14.0944 92 14.0944C90.4731 14.2719 88.8928 15.4438 87.2593 17.6099C85.6259 19.7761 84.1699 22.4216 82.8915 25.5466C80.3703 31.8319 78.5948 37.78 77.5649 43.3906V43.4439Z" fill="white"/>
<path fill-rule="evenodd" clip-rule="evenodd" d="M41.077 75.675C40.5462 77.0655 39.975 78.1539 39.3635 78.9401V80.2184H40.3755C39.3102 81.0707 38.8131 82.8462 38.8841 85.545C38.8841 86.4683 38.4935 87.4093 37.7123 88.3681C36.931 89.3624 35.6526 90.1081 33.8771 90.6053L33.0249 88.1551C33.2734 87.8355 33.5575 87.3561 33.8771 86.7169C34.1967 86.0777 34.5518 85.545 34.9424 85.1189C33.0604 85.1189 32.0306 85.7403 31.853 86.9832C31.6755 88.2616 30.4681 88.9008 28.2309 88.9008L27.4852 87.7289H26.2068L24.8752 87.143L25.3546 85.545L24.1294 86.9299V87.0365L23.3837 88.1551C22.3184 87.6934 21.7858 86.8767 21.7858 85.7048C21.7858 84.5685 21.4484 83.2724 20.7737 81.8164C20.1345 80.3605 19.8149 79.4017 19.8149 78.9401C19.8149 74.3592 19.158 70.2577 17.8441 66.6356L18.8029 65.4638C17.1694 65.4638 16.2994 62.6585 16.1928 57.0478C16.1573 54.8106 16.0863 53.4967 15.9798 53.1061C14.95 49.6261 14.293 45.5423 14.0089 40.8549C13.7604 36.132 13.5473 31.3203 13.3697 26.4199C13.2277 21.5194 12.7661 17.4002 11.9848 14.0622L10.9195 15.2873V10.3869C9.42806 8.25621 7.68804 6.48068 5.69945 5.06026C3.74637 3.63984 1.84655 2.92963 0 2.92963C0.923275 2.82309 3.79963 2.53901 8.62908 2.07737C21.1288 0.941032 27.6628 0.248575 28.2309 0L29.8289 2.29043L28.2309 1.33165C27.5207 2.1839 27.1656 3.58657 27.1656 5.53965V7.45723L28.2309 6.92457V7.72356L27.5385 8.68234C27.8226 10.7064 28.3552 11.9671 29.1364 12.4642L28.2309 13.6361V16.1396C28.2309 18.1707 28.4206 20.9725 28.8 24.5449C26.8313 24.7374 25.5693 24.8658 25.0139 24.9298C26.3022 24.9298 27.6163 25.2755 28.9564 25.9668C28.9969 26.324 29.0392 26.6881 29.0832 27.0591C29.6513 31.8175 29.9887 35.049 30.0952 36.7535L29.1364 35.7414C29.1364 38.2272 29.2962 41.938 29.6158 46.874C29.9354 51.7745 30.0952 55.4676 30.0952 57.9533L32.0128 51.881L31.054 50.6559C31.22 50.324 32.3942 43.6477 34.5767 30.6271C35.0497 31.1841 35.502 31.7707 35.9334 32.3871V37.2875L36.9988 36.0624C37.78 39.4004 38.2416 43.5196 38.3837 48.4201C38.5612 53.3206 38.7743 58.1322 39.0229 62.8552C39.307 67.5426 39.9639 71.6263 40.9937 75.1063C41.0244 75.219 41.0522 75.4086 41.077 75.675ZM35.7009 23.8896C46.8607 22.8646 52.7087 22.2348 53.2449 22.0002L53.3626 22.169C54.2471 19.2126 55.3157 16.173 56.5684 13.0501C57.8468 9.92521 59.3027 7.27967 60.9362 5.11353C62.5697 2.94738 64.1499 1.77553 65.6768 1.59798C65.0732 1.59798 64.2387 1.58022 63.1734 1.54471C62.108 1.47369 61.2735 1.43818 60.6699 1.43818H56.0357C47.4422 1.43818 42.666 0.958787 41.7072 0L40.5886 1.33165L38.7776 0V1.33165H39.6831L39.8429 2.92963L38.7776 5.00699C38.7776 5.26505 37.752 11.5592 35.7009 23.8896ZM52.8596 23.9126C52.6374 24.7126 52.4291 25.5064 52.2345 26.294C52.3268 25.3202 52.5351 24.5264 52.8596 23.9126Z" fill="#FFD470"/>
<path d="M145.968 48.3777C145.481 49.5337 145.017 51.61 144.576 54.6065C144.15 57.5878 143.602 59.7325 142.933 61.0407L142.979 61.9533C142.979 62.4553 142.834 62.8584 142.545 63.1626C142.545 63.984 142.37 65.0183 142.02 66.2656C141.686 67.4977 141.305 68.3875 140.88 68.9351V69.4827H141.313C140.857 69.8477 140.644 70.6083 140.674 71.7643C140.674 72.1598 140.507 72.5629 140.172 72.9736C139.838 73.3995 139.29 73.7189 138.529 73.9318L138.164 72.8823C138.271 72.7454 138.393 72.5401 138.529 72.2663C138.666 71.9925 138.818 71.7643 138.986 71.5818C138.18 71.5818 137.739 71.848 137.662 72.3803C137.586 72.9279 137.069 73.2017 136.111 73.2017L135.792 72.6998H135.244L134.674 72.4488L134.879 71.7643L134.354 72.3575V72.4032L134.035 72.8823C133.578 72.6846 133.35 72.3347 133.35 71.8327C133.35 71.346 133.206 70.7908 132.917 70.1672C132.643 69.5435 132.506 69.1328 132.506 68.9351C132.506 66.9729 132.225 65.216 131.662 63.6645L132.072 63.1626C131.373 63.1626 131 61.9609 130.954 59.5576C130.939 58.5993 130.909 58.0365 130.863 57.8692C130.422 56.3786 130.141 54.6293 130.019 52.6215C129.913 50.5985 129.821 48.5374 129.745 46.4383C129.684 44.3392 129.487 42.5748 129.152 41.1449L128.696 41.6697V39.5706C128.057 38.658 127.312 37.8974 126.46 37.289C125.623 36.6806 124.809 36.3763 124.018 36.3763C124.414 36.3307 125.646 36.209 127.715 36.0113C133.069 35.5245 135.868 35.2279 136.111 35.1215L136.795 36.1026L136.111 35.6919C135.807 36.0569 135.655 36.6577 135.655 37.4943V38.3157L136.111 38.0876V38.4298L135.814 38.8405C135.936 39.7075 136.164 40.2475 136.499 40.4604L136.111 40.9624V42.0348C136.111 43.0995 136.233 44.6586 136.476 46.7121C136.719 48.7503 136.864 50.1345 136.91 50.8646L136.499 50.4311C136.499 51.4959 136.567 53.0854 136.704 55.1997C136.841 57.2988 136.91 58.8807 136.91 59.9455L137.731 57.3445L137.32 56.8197C137.396 56.6676 137.967 53.4048 139.031 47.0315C140.096 40.643 140.629 37.3879 140.629 37.2662L141.085 36.3763L141.016 35.6919H140.629V35.1215L141.404 35.6919L141.883 35.1215C142.294 35.5321 144.34 35.7375 148.021 35.7375H150.006C150.265 35.7375 150.622 35.7527 151.078 35.7831C151.535 35.7983 151.892 35.8059 152.151 35.8059C151.497 35.882 150.82 36.384 150.12 37.3118C149.42 38.2397 148.797 39.3729 148.249 40.7114C147.169 43.4037 146.409 45.9516 145.968 48.3549V48.3777ZM164.654 61.9533L164.129 70.6007C164.449 70.6007 164.608 70.8745 164.608 71.4221V71.673C164.106 71.5666 163.802 71.2928 163.696 70.8517V71.1711L163.125 71.1939C162.852 71.2243 162.593 71.1711 162.35 71.0342C162.106 70.8973 161.985 70.73 161.985 70.5322C161.985 70.3497 162 70.2052 162.03 70.0987H162.076C162.076 69.399 161.802 69.0492 161.254 69.0492C160.889 69.0492 160.54 69.2925 160.205 69.7793C159.87 70.2508 159.673 70.5246 159.612 70.6007C158.973 70.5703 158.608 68.3799 158.516 64.0296C158.471 62.3412 158.425 61.3905 158.38 61.1776C158.334 60.9494 158.25 60.5463 158.129 59.9683C158.022 59.3751 157.946 58.9796 157.9 58.7819C157.87 58.5841 157.802 58.2191 157.695 57.6867C157.604 57.1391 157.543 56.7436 157.513 56.5003L157.33 55.4051C157.254 54.9183 157.201 54.5305 157.17 54.2414C157.14 53.9372 157.094 53.5646 157.033 53.1234C156.988 52.6671 156.95 52.264 156.919 51.9142C156.874 51.0928 156.851 50.3094 156.851 49.5641L157.125 44.1795H157.535L156.189 41.0537C156.068 40.7647 155.763 40.4452 155.277 40.0954C154.805 39.7303 154.379 39.3501 153.999 38.9546C153.619 38.5439 153.436 38.08 153.451 37.5628V37.3803L152.516 36.787L152.79 36.2851L152.105 36.787L151.672 36.2851C152.676 36.2851 154.098 36.1102 155.938 35.7603C157.794 35.4105 159.14 35.2355 159.977 35.2355L160.41 35.7603L163.696 35.2355C164.106 35.6462 165.133 35.9048 166.776 36.0113C168.434 36.1178 169.392 36.209 169.651 36.2851C169.636 36.3003 169.567 36.3611 169.445 36.4676C169.339 36.5741 169.263 36.6501 169.217 36.6958C169.187 36.7414 169.111 36.8175 168.989 36.9239C168.883 37.0304 168.799 37.1217 168.738 37.1977C168.677 37.2586 168.594 37.3498 168.487 37.4715C168.396 37.578 168.32 37.6769 168.259 37.7681C168.213 37.8442 168.153 37.9355 168.076 38.0419C168.016 38.1484 167.962 38.2473 167.917 38.3385C167.841 38.5363 167.803 38.734 167.803 38.9318H168.259C167.575 39.7227 166.958 40.9472 166.411 42.6052L166.89 43.1299C165.673 47.6476 165.065 51.3666 165.065 54.2871L165.521 57.4129C165.278 57.7323 165.126 58.2267 165.065 58.896L164.608 58.4396L165.065 60.6072L164.129 61.0863C164.479 61.0863 164.654 61.3753 164.654 61.9533ZM190.733 65.1932L190.345 69.1404C189.904 69.5511 189.668 69.901 189.638 70.19C189.607 70.479 189.592 70.7528 189.592 71.0114L189.159 71.5133C189.143 71.5285 189.128 71.5437 189.113 71.559C189.037 71.6959 188.946 71.6959 188.839 71.559C188.733 71.4221 188.68 71.3156 188.68 71.2395C188.68 71.1787 188.702 71.1026 188.748 71.0114H187.927C187.927 71.7567 187.797 72.2739 187.539 72.5629H186.307L185.873 72.0609H185.462L185.052 72.5629V73.1105H184.253V72.5629C183.903 72.5629 183.728 72.0001 183.728 70.8745C183.728 69.7641 183.751 69.0948 183.797 68.8666C182.854 68.2126 182.078 66.4481 181.47 63.5733L181.036 64.1437C181.006 64.0828 180.99 63.9231 180.99 63.6645C180.99 63.3907 181.15 63.0257 181.47 62.5694H181.036V62.0218L180.625 61.4742V60.4246C179.88 59.7706 178.777 55.618 177.317 47.967C176.769 45.0313 176.382 43.1908 176.153 42.4455H175.378L175.697 41.9435C175.484 40.7571 175.081 39.6923 174.488 38.7492C173.91 37.8062 173.347 37.327 172.799 37.3118V36.787H170.518C174.731 35.9809 178.899 35.5778 183.021 35.5778V35.0758H183.797L184.299 35.5778H183.409V37.1521L183.797 37.7225V40.3464H184.253L183.797 40.8711C184.101 41.4796 184.253 41.9435 184.253 42.2629V42.4455C184.557 42.8562 184.709 43.5558 184.709 44.5446L184.641 46.6893C184.641 46.9479 184.748 47.5791 184.96 48.583C185.189 49.5717 185.356 50.1802 185.462 50.4083L185.166 50.0204C185.394 50.4311 185.523 51.3742 185.554 52.8497C185.584 54.3099 185.63 55.7397 185.691 57.1391C185.767 58.5385 185.972 59.4207 186.307 59.7858C186.656 58.6146 186.923 56.66 187.105 53.922C187.288 51.1841 187.432 49.4729 187.539 48.7884L187.128 48.2636L187.539 47.6932C187.539 45.2138 187.668 43.4646 187.927 42.4455C187.881 42.4911 187.835 42.5139 187.79 42.5139C187.592 42.5139 187.493 42.3998 187.493 42.1717C187.493 41.9283 187.706 41.2134 188.132 40.0269C188.573 38.8253 188.794 38.0647 188.794 37.7453C188.794 37.4107 188.778 37.2129 188.748 37.1521L189.159 36.6273V35.5778H189.592L190.003 35.0758V35.5778C191.205 35.5778 193.007 35.7071 195.41 35.9657C197.829 36.209 199.647 36.3307 200.863 36.3307L199.015 37.3346C197.905 38.0952 196.863 39.8672 195.889 42.6508C194.916 45.4192 194.429 47.8301 194.429 49.8835H194.019C194.019 50.7354 193.745 52.4618 193.197 55.0628C192.65 57.6487 192.231 59.2534 191.942 59.8771H192.353V60.4246L191.942 60.9266C191.942 61.5959 191.821 62.3564 191.577 63.2082C191.349 64.0448 191.068 64.7065 190.733 65.1932ZM214.028 61.9533L213.504 70.6007C213.823 70.6007 213.983 70.8745 213.983 71.4221V71.673C213.481 71.5666 213.177 71.2928 213.07 70.8517V71.1711L212.5 71.1939C212.226 71.2243 211.967 71.1711 211.724 71.0342C211.481 70.8973 211.359 70.73 211.359 70.5322C211.359 70.3497 211.374 70.2052 211.404 70.0987H211.45C211.45 69.399 211.176 69.0492 210.629 69.0492C210.264 69.0492 209.914 69.2925 209.579 69.7793C209.245 70.2508 209.047 70.5246 208.986 70.6007C208.347 70.5703 207.982 68.3799 207.891 64.0296C207.845 62.3412 207.8 61.3905 207.754 61.1776C207.708 60.9494 207.625 60.5463 207.503 59.9683C207.396 59.3751 207.32 58.9796 207.275 58.7819C207.244 58.5841 207.176 58.2191 207.069 57.6867C206.978 57.1391 206.917 56.7436 206.887 56.5003L206.704 55.4051C206.628 54.9183 206.575 54.5305 206.545 54.2414C206.514 53.9372 206.469 53.5646 206.408 53.1234C206.362 52.6671 206.324 52.264 206.294 51.9142C206.248 51.0928 206.225 50.3094 206.225 49.5641L206.499 44.1795H206.91L205.564 41.0537C205.442 40.7647 205.138 40.4452 204.651 40.0954C204.179 39.7303 203.753 39.3501 203.373 38.9546C202.993 38.5439 202.81 38.08 202.826 37.5628V37.3803L201.89 36.787L202.164 36.2851L201.479 36.787L201.046 36.2851C202.05 36.2851 203.472 36.1102 205.313 35.7603C207.168 35.4105 208.514 35.2355 209.351 35.2355L209.785 35.7603L213.07 35.2355C213.481 35.6462 214.507 35.9048 216.15 36.0113C217.808 36.1178 218.767 36.209 219.025 36.2851C219.01 36.3003 218.941 36.3611 218.82 36.4676C218.713 36.5741 218.637 36.6501 218.592 36.6958C218.561 36.7414 218.485 36.8175 218.363 36.9239C218.257 37.0304 218.173 37.1217 218.112 37.1977C218.052 37.2586 217.968 37.3498 217.861 37.4715C217.77 37.578 217.694 37.6769 217.633 37.7681C217.588 37.8442 217.527 37.9355 217.451 38.0419C217.39 38.1484 217.337 38.2473 217.291 38.3385C217.215 38.5363 217.177 38.734 217.177 38.9318H217.633C216.949 39.7227 216.333 40.9472 215.785 42.6052L216.264 43.1299C215.047 47.6476 214.439 51.3666 214.439 54.2871L214.895 57.4129C214.652 57.7323 214.5 58.2267 214.439 58.896L213.983 58.4396L214.439 60.6072L213.504 61.0863C213.853 61.0863 214.028 61.3753 214.028 61.9533ZM221.763 37.9963C221.763 37.6921 221.52 37.54 221.033 37.54H220.508C220.858 37.4943 221.421 37.3042 222.197 36.9696C222.972 36.6349 223.771 36.4676 224.592 36.4676C225.429 36.4676 226.95 36.2927 229.155 35.9428C231.361 35.593 232.89 35.4181 233.742 35.4181C234.593 35.4181 235.612 35.5854 236.799 35.92C237.985 36.2547 238.906 36.422 239.56 36.422H239.902L240.769 37.038C240.906 37.038 241.75 37.8518 243.302 39.4794C244.853 41.0917 245.667 42.0272 245.743 42.2857H245.287C245.834 42.8942 246.138 43.8144 246.199 45.0465C246.214 45.3811 246.222 46.1265 246.222 47.2825C246.222 48.4385 246.009 49.9824 245.583 51.9142C245.157 53.8308 244.686 55.542 244.169 57.0478C242.815 61.0787 242.123 64.4403 242.092 67.1326H241.636C241.636 68.3191 241.423 69.4827 240.997 70.6235C240.571 71.7643 239.986 72.6846 239.24 73.3843L239.081 72.9736L238.67 73.4527H238.944L237.848 73.9775L237.415 73.4527L236.616 74.5022L235.772 73.4527L235.339 74.0916L234.54 73.9775C234.54 72.8975 234.464 72.2358 234.312 71.9925C234.023 71.5209 233.582 71.2852 232.989 71.2852C232.411 71.2852 231.931 71.346 231.551 71.4677C231.186 71.5894 230.912 71.7871 230.73 72.0609C230.547 72.3347 230.41 72.6237 230.319 72.9279C229.969 74.0992 229.597 74.9966 229.201 75.6202L228.768 75.027V74.0916C228.768 73.1941 228.638 72.4564 228.38 71.8784H228.768L228.38 71.3536C228.38 66.1971 227.817 60.6148 226.691 54.6065C225.581 48.5982 224.083 43.4342 222.197 39.1143L222.402 39.2056L222.676 38.0419L222.197 37.54L221.763 37.9963ZM234.563 66.6991L234.54 67.6346H234.951C234.951 67.4064 234.974 67.2695 235.019 67.2239C235.065 67.163 235.187 67.1326 235.384 67.1326V66.0831H235.772L236.206 66.585H236.616L237.004 66.0831C237.324 66.0831 237.483 65.7865 237.483 65.1932L237.415 63.9612C237.476 63.8699 237.567 63.6417 237.689 63.2767C237.993 62.3032 238.175 61.8164 238.236 61.8164L238.168 60.5387C238.168 59.9911 238.335 59.7173 238.67 59.7173C238.67 59.3675 238.563 59.1926 238.35 59.1926C238.563 59.1317 238.67 58.9568 238.67 58.6678V56.5459C238.67 55.8462 238.525 55.3138 238.236 54.9487C238.236 54.0817 238.069 53.344 237.734 52.7356C237.4 52.1271 236.89 51.8229 236.206 51.8229H234.951C234.951 52.1728 234.875 52.515 234.723 52.8497C234.571 53.1843 234.365 53.3516 234.107 53.3516V52.8497H233.742C233.742 52.9713 233.78 53.0854 233.856 53.1919C233.932 53.2984 234.015 53.3516 234.107 53.3516V54.9487L233.742 55.4963V55.9983H234.107V57.6182C234.107 57.892 234.076 58.0518 234.015 58.0974C233.954 58.143 233.863 58.1658 233.742 58.1658V59.7173C233.742 59.9911 233.772 60.1508 233.833 60.1965C233.894 60.2269 233.985 60.2421 234.107 60.2421V61.8164H233.742C233.742 62.1967 233.863 62.3868 234.107 62.3868L233.742 62.866V63.9612C233.742 64.3262 233.863 64.6837 234.107 65.0335V65.5355C234.411 65.931 234.563 66.3188 234.563 66.6991ZM239.081 73.4527L239.24 73.3843L239.377 73.4527H239.081Z" fill="black"/>
<path d="M274.468 65.1932L274.081 69.1404C273.64 69.5511 273.404 69.901 273.373 70.19C273.343 70.479 273.328 70.7528 273.328 71.0114L272.894 71.5133C272.879 71.5285 272.864 71.5437 272.849 71.559C272.772 71.6959 272.681 71.6959 272.575 71.559C272.468 71.4221 272.415 71.3156 272.415 71.2395C272.415 71.1787 272.438 71.1026 272.483 71.0114H271.662C271.662 71.7567 271.533 72.2739 271.274 72.5629H270.042L269.609 72.0609H269.198L268.787 72.5629V73.1105H267.989V72.5629C267.639 72.5629 267.464 72.0001 267.464 70.8745C267.464 69.7641 267.487 69.0948 267.532 68.8666C266.589 68.2126 265.814 66.4481 265.205 63.5733L264.772 64.1437C264.741 64.0828 264.726 63.9231 264.726 63.6645C264.726 63.3907 264.886 63.0257 265.205 62.5694H264.772V62.0218L264.361 61.4742V60.4246C263.616 59.7706 262.513 55.618 261.053 47.967C260.505 45.0313 260.117 43.1908 259.889 42.4455H259.113L259.433 41.9435C259.22 40.7571 258.817 39.6923 258.223 38.7492C257.645 37.8062 257.083 37.327 256.535 37.3118V36.787H254.253C258.467 35.9809 262.634 35.5778 266.757 35.5778V35.0758H267.532L268.034 35.5778H267.144V37.1521L267.532 37.7225V40.3464H267.989L267.532 40.8711C267.837 41.4796 267.989 41.9435 267.989 42.2629V42.4455C268.293 42.8562 268.445 43.5558 268.445 44.5446L268.377 46.6893C268.377 46.9479 268.483 47.5791 268.696 48.583C268.924 49.5717 269.091 50.1802 269.198 50.4083L268.901 50.0204C269.129 50.4311 269.259 51.3742 269.289 52.8497C269.32 54.3099 269.365 55.7397 269.426 57.1391C269.502 58.5385 269.708 59.4207 270.042 59.7858C270.392 58.6146 270.658 56.66 270.841 53.922C271.023 51.1841 271.168 49.4729 271.274 48.7884L270.864 48.2636L271.274 47.6932C271.274 45.2138 271.404 43.4646 271.662 42.4455C271.616 42.4911 271.571 42.5139 271.525 42.5139C271.327 42.5139 271.229 42.3998 271.229 42.1717C271.229 41.9283 271.442 41.2134 271.867 40.0269C272.309 38.8253 272.529 38.0647 272.529 37.7453C272.529 37.4107 272.514 37.2129 272.483 37.1521L272.894 36.6273V35.5778H273.328L273.738 35.0758V35.5778C274.94 35.5778 276.743 35.7071 279.146 35.9657C281.564 36.209 283.382 36.3307 284.599 36.3307L282.751 37.3346C281.64 38.0952 280.598 39.8672 279.625 42.6508C278.651 45.4192 278.165 47.8301 278.165 49.8835H277.754C277.754 50.7354 277.48 52.4618 276.933 55.0628C276.385 57.6487 275.967 59.2534 275.678 59.8771H276.088V60.4246L275.678 60.9266C275.678 61.5959 275.556 62.3564 275.313 63.2082C275.085 64.0448 274.803 64.7065 274.468 65.1932ZM297.764 61.9533L297.239 70.6007C297.559 70.6007 297.718 70.8745 297.718 71.4221V71.673C297.216 71.5666 296.912 71.2928 296.806 70.8517V71.1711L296.235 71.1939C295.961 71.2243 295.703 71.1711 295.459 71.0342C295.216 70.8973 295.094 70.73 295.094 70.5322C295.094 70.3497 295.11 70.2052 295.14 70.0987H295.186C295.186 69.399 294.912 69.0492 294.364 69.0492C293.999 69.0492 293.649 69.2925 293.315 69.7793C292.98 70.2508 292.782 70.5246 292.721 70.6007C292.083 70.5703 291.718 68.3799 291.626 64.0296C291.581 62.3412 291.535 61.3905 291.489 61.1776C291.444 60.9494 291.36 60.5463 291.238 59.9683C291.132 59.3751 291.056 58.9796 291.01 58.7819C290.98 58.5841 290.911 58.2191 290.805 57.6867C290.714 57.1391 290.653 56.7436 290.622 56.5003L290.44 55.4051C290.364 54.9183 290.311 54.5305 290.28 54.2414C290.25 53.9372 290.204 53.5646 290.143 53.1234C290.098 52.6671 290.06 52.264 290.029 51.9142C289.984 51.0928 289.961 50.3094 289.961 49.5641L290.235 44.1795H290.645L289.299 41.0537C289.177 40.7647 288.873 40.4452 288.386 40.0954C287.915 39.7303 287.489 39.3501 287.109 38.9546C286.728 38.5439 286.546 38.08 286.561 37.5628V37.3803L285.626 36.787L285.899 36.2851L285.215 36.787L284.781 36.2851C285.785 36.2851 287.208 36.1102 289.048 35.7603C290.904 35.4105 292.25 35.2355 293.087 35.2355L293.52 35.7603L296.806 35.2355C297.216 35.6462 298.243 35.9048 299.886 36.0113C301.544 36.1178 302.502 36.209 302.761 36.2851C302.745 36.3003 302.677 36.3611 302.555 36.4676C302.449 36.5741 302.373 36.6501 302.327 36.6958C302.297 36.7414 302.221 36.8175 302.099 36.9239C301.992 37.0304 301.909 37.1217 301.848 37.1977C301.787 37.2586 301.703 37.3498 301.597 37.4715C301.506 37.578 301.43 37.6769 301.369 37.7681C301.323 37.8442 301.262 37.9355 301.186 38.0419C301.125 38.1484 301.072 38.2473 301.027 38.3385C300.951 38.5363 300.912 38.734 300.912 38.9318H301.369C300.684 39.7227 300.068 40.9472 299.521 42.6052L300 43.1299C298.783 47.6476 298.175 51.3666 298.175 54.2871L298.631 57.4129C298.388 57.7323 298.235 58.2267 298.175 58.896L297.718 58.4396L298.175 60.6072L297.239 61.0863C297.589 61.0863 297.764 61.3753 297.764 61.9533ZM317.546 53.8992L316.291 51.7773L316.701 51.2753C316.275 51.2753 316.047 51.2373 316.017 51.1613C315.956 50.9635 315.811 50.8114 315.583 50.7049H315.926L315.469 50.1802V50.7049L314.671 50.1802L313.849 51.2753V52.3477C313.849 52.728 313.887 53.017 313.963 53.2147C314.039 53.3972 314.093 53.5341 314.123 53.6254C314.154 53.7167 314.222 53.8384 314.328 53.9905C314.435 54.1426 314.503 54.249 314.534 54.3099C314.671 54.5381 314.838 54.751 315.036 54.9487V55.3594L315.469 54.9487C317.873 54.9487 319.683 55.8234 320.899 57.5726C322.116 59.3066 322.725 61.6111 322.725 64.4859H322.314C322.314 65.3225 322.23 65.9005 322.063 66.22C321.911 66.5394 321.713 66.8816 321.47 67.2467C321.242 67.5965 321.059 67.9008 320.922 68.1593C320.922 68.4179 320.816 68.7145 320.603 69.0492C319.934 70.0835 319.599 71.0266 319.599 71.8784L319.165 71.5818V71.8784C319.105 71.8175 318.96 71.7111 318.732 71.559C318.504 71.4221 318.329 71.3536 318.207 71.3536C318.101 71.3536 317.873 71.4373 317.523 71.6046C317.173 71.7871 316.899 71.8784 316.701 71.8784V71.3536H315.469V71.8784H315.036L314.671 71.3536V71.8784H312.982C312.982 72.2891 312.701 72.4944 312.138 72.4944L310.929 72.4032L309.149 70.2812C309.149 69.8249 309.005 69.3534 308.716 68.8666C308.427 68.3647 308.13 67.8855 307.826 67.4292C307.522 66.9577 307.362 66.7067 307.347 66.6763V65.5355L306.959 65.2389L306.868 65.5355H306.434C306.434 65.3225 306.586 65.0715 306.89 64.7825C307.195 64.4935 307.347 64.2197 307.347 63.9612C308.122 63.9612 308.723 63.7862 309.149 63.4364H313.416V62.866H313.849V64.4859L314.26 64.9651L313.849 65.5355C313.849 65.9005 314.07 66.0831 314.511 66.0831H314.671C314.671 66.4481 314.838 66.6307 315.173 66.6307L315.926 66.585L316.701 64.9651V63.9612L316.291 63.4364V61.8164L315.926 62.3412L315.469 61.8164L312.594 61.3145C312.381 61.0103 312.115 60.8429 311.796 60.8125V60.2421H311.362L310.929 60.8125C308.678 59.5957 307.179 58.3408 306.434 57.0478C306.434 56.5003 306.206 55.5876 305.75 54.3099C305.293 53.0322 305.065 52.0207 305.065 51.2753V46.6893C305.065 45.2899 305.362 43.8905 305.955 42.4911C306.548 41.0917 307.301 39.8824 308.214 38.8633C309.142 37.8442 310.176 37.0152 311.317 36.3763C312.473 35.7375 313.591 35.4181 314.671 35.4181L315.036 35.92C315.538 35.5854 315.834 35.4181 315.926 35.4181C317.112 35.4181 318.184 35.5854 319.143 35.92C320.116 36.2394 320.831 36.5969 321.287 36.9924C321.759 37.3727 322.17 37.7301 322.519 38.0647C322.869 38.3842 323.097 38.5439 323.204 38.5439C323.204 38.8633 323.432 39.1447 323.888 39.3881C324.36 39.6162 324.596 39.8748 324.596 40.1638C324.809 40.3007 325.022 40.5821 325.235 41.008C325.448 41.4187 325.554 41.7077 325.554 41.8751C325.554 42.0272 325.546 42.1641 325.531 42.2857H325.052L324.117 53.8992L323.683 54.424H324.596V54.9487H322.725L322.314 54.424V53.8992C322.04 54.1426 321.721 54.3175 321.356 54.424L320.466 53.3516V53.8992H317.546ZM345.13 43.7916V46.233C345.13 49.1686 344.811 51.2829 344.172 52.5759C344.461 52.5759 344.606 52.4009 344.606 52.0511V51.8686L345.016 51.5263C344.773 51.7697 344.651 52.188 344.651 52.7812C344.651 53.3592 344.758 54.211 344.971 55.3366C345.199 56.4622 345.32 57.1315 345.336 57.3445H344.902V56.4546C344.628 57.0022 344.491 57.5726 344.491 58.1658V58.394L345.016 59.0329L344.925 57.8464H345.381V58.0289C345.381 59.3219 345.206 61.2612 344.857 63.8471C344.507 66.4177 344.332 68.6233 344.332 70.4638C344.332 72.3195 344.096 73.2778 343.624 73.3386L343.282 72.9736L342.735 73.0648L342.37 72.5629L341.366 72.9964L341.434 72.9279L340.43 71.9925L339.586 72.6085L339.038 72.5629L339.518 71.9925C339.518 71.673 339.556 71.1939 339.632 70.555C339.723 69.9162 339.769 69.4294 339.769 69.0948L339.358 69.3686L338.947 68.8666H339.312C338.932 68.3647 338.605 67.8323 338.331 67.2695L337.647 67.4064L337.122 66.9957L336.711 67.8399H337.122L337.167 68.3419L336.825 68.2734L336.848 68.6613C336.848 68.9807 336.78 69.3762 336.643 69.8477C336.521 70.3193 336.377 70.555 336.209 70.555C336.057 70.555 335.951 70.4334 335.89 70.19C335.798 71.559 335.586 72.7074 335.251 73.6352L334.726 73.1105V73.4299C334.726 73.6733 334.642 73.8558 334.475 73.9775C334.262 74.0992 333.912 74.16 333.426 74.16L333.38 73.6352C332.939 73.7873 332.368 73.9166 331.669 74.0231C331.136 73.3995 330.863 72.4336 330.847 71.1254C330.847 69.8173 330.84 69.0644 330.825 68.8666L331.19 68.9123L331.281 68.3419C331.007 68.2658 330.802 67.6726 330.665 66.5622C330.543 65.4366 330.467 64.8206 330.437 64.7141C330.999 64.7141 331.281 64.1513 331.281 63.0257V62.615L330.825 63.117L330.733 61.3601C330.733 60.6452 330.787 59.7325 330.893 58.6222C331.015 57.5118 331.159 56.7132 331.327 56.2265H330.916L331.714 53.9448C331.714 53.3364 331.585 52.4238 331.327 51.2069C331.083 49.99 330.961 49.047 330.961 48.3777C330.961 47.7084 331.235 47.2217 331.783 46.9174C331.25 45.1986 330.977 43.3353 330.961 41.3275L331.327 40.7799C331.053 40.6582 330.315 39.9585 329.113 38.6808C327.927 37.3879 327.151 36.7414 326.786 36.7414H326.649C326.649 36.3459 328.284 35.9733 331.555 35.6234C334.825 35.2584 337.631 35.0758 339.974 35.0758C340.202 35.0758 340.521 35.2584 340.932 35.6234C342.073 35.2431 343.662 35.053 345.701 35.053L349.557 35.0758C347.686 36.2471 346.461 37.54 345.883 38.9546C345.381 40.1562 345.13 41.7686 345.13 43.7916ZM336.939 58.896L336.985 59.4207H336.574L336.734 61.1776C336.734 61.7404 336.589 62.2195 336.3 62.615L336.323 63.117L336.734 62.615H339.244L339.13 60.4703L338.879 59.9455L339.038 58.896C339.038 57.4813 338.856 56.774 338.491 56.774L338.879 56.2265H338.491L338.833 55.7701H338.445L338.4 55.1997C338.658 55.1997 338.787 55.0324 338.787 54.6978H338.377L338.263 52.1424C338.187 52.7052 337.943 53.7547 337.533 55.291C337.137 56.8121 336.939 58.0137 336.939 58.896ZM344.971 61.6339L344.765 61.5426C344.735 61.5426 344.72 61.6339 344.72 61.8164V62.1815C344.72 62.1511 344.834 61.9533 345.062 61.5883C345.031 61.6187 345.001 61.6339 344.971 61.6339ZM343.761 73.4527L343.533 73.3386L343.761 73.4527ZM341.32 73.0648C341.32 73.0192 341.335 72.9964 341.366 72.9964L341.32 73.0648ZM362.585 51.9142C362.326 51.2297 361.923 50.8875 361.375 50.8875L360.942 50.3399L360.554 50.8875H359.71V51.8686C359.71 52.5987 359.573 53.1615 359.299 53.557V55.6104H358.888V56.1808L359.299 56.6828V57.3445C359.299 57.4053 359.162 57.892 358.888 58.8047L359.299 59.3295H359.71L359.687 60.3106C359.687 60.7213 359.832 61.1015 360.121 61.4514V62.3868C360.121 63.117 360.265 63.6874 360.554 64.0981H360.121V64.6L360.554 64.3262L360.942 65.1476L360.554 65.6496H360.942L361.763 66.6991V67.2239L362.174 66.6991H362.585L362.995 67.2239V66.6991C363.862 66.6991 364.547 66.3493 365.049 65.6496H365.277L365.049 63.5276H364.661C364.387 63.5276 364.022 63.695 363.566 64.0296C363.109 64.349 362.782 64.5392 362.585 64.6C362.585 63.8243 362.516 62.6682 362.379 61.1319C362.242 59.5957 362.174 58.4472 362.174 57.6867C362.25 57.7171 363.87 58.0898 367.034 58.8047C370.198 59.5196 371.894 59.8771 372.122 59.8771C371.635 60.8658 371.361 62.7519 371.301 65.5355C371.255 68.3495 371.057 70.1291 370.707 70.8745C370.357 71.6198 369.901 71.9925 369.338 71.9925C368.38 72.7986 367.642 73.331 367.125 73.5896V73.2702C367.125 72.753 366.981 72.4944 366.692 72.4944V71.9925L366.304 71.7643L365.87 72.4944L365.368 72.7682L365.049 72.4944L364.661 73.0648H364.25V72.4944L363.817 73.0648H364.25V73.5896L363.817 73.9318V73.0648L363.406 73.5896L362.585 72.4944H361.763V71.9925H361.375V72.4944C361.086 72.8747 360.942 73.4223 360.942 74.1372C360.394 74.1068 360.121 73.5592 360.121 72.4944L359.71 71.9925H359.299C359.269 72.4184 359.139 72.791 358.911 73.1105C358.683 73.4299 358.394 73.5896 358.044 73.5896L357.656 73.0648H358.044V72.4944H357.246L356.835 71.9925C356.47 71.9925 356.196 71.4677 356.014 70.4181L355.694 70.7148C355.284 70.7148 354.82 69.688 354.302 67.6346C354.105 66.8588 353.922 66.3721 353.755 66.1743C353.755 62.9344 352.994 59.4131 351.473 55.6104H351.907C351.633 55.3062 351.253 53.6102 350.766 50.5224C350.294 47.4194 350.059 45.3811 350.059 44.4077C350.059 43.4342 350.234 42.7573 350.583 42.377V40.3007L352.386 38.7264H353.276C353.276 37.9355 353.686 37.2814 354.508 36.7642C355.344 36.2318 356.173 35.9657 356.995 35.9657C357.192 35.9657 357.413 35.9961 357.656 36.0569C357.93 35.7071 358.417 35.5321 359.117 35.5321H359.299V36.0569H359.71C359.71 35.6919 359.839 35.5093 360.098 35.5093L360.554 35.5321L359.71 37.1065L360.554 36.0569L361.375 36.5589L360.942 36.0569V35.5321L361.763 36.0569C362.341 35.8896 362.653 35.8059 362.699 35.8059C365.634 35.8059 368.144 36.787 370.228 38.7492C371.217 39.6923 372 40.894 372.578 42.3542C373.156 43.7992 373.445 45.3964 373.445 47.1456C373.445 47.5867 373.187 48.8872 372.669 51.0472C372.168 53.2071 371.917 54.7054 371.917 55.542C371.917 56.3786 372.053 56.9262 372.327 57.1847C371.308 57.1847 369.909 57.0174 368.129 56.6828C366.349 56.3481 365.056 56.1808 364.25 56.1808C363.961 55.8158 363.817 55.4583 363.817 55.1085V54.5609H364.25L363.406 53.557L363.817 52.9866H363.406L362.995 52.439V51.6404L362.585 51.9142ZM390.17 71.4221L389.166 71.3992L388.481 71.9468L387.568 70.8973V70.3269C387.264 70.0075 386.816 69.8477 386.222 69.8477H385.31L384.831 70.3269V70.8973C384.557 70.8973 384.329 71.1635 384.146 71.6959C383.964 72.2282 383.743 72.4944 383.484 72.4944V72.9736C383.332 72.1522 383.028 70.6463 382.572 68.4559C381.613 63.984 381.134 60.5691 381.134 58.2115C381.134 57.7399 381.15 57.3901 381.18 57.1619L380.746 56.6371L378.51 43.4037H378.967V42.8562H378.51C378.465 42.7801 378.366 42.5976 378.214 42.3086C378.077 42.0043 377.986 41.8066 377.94 41.7153C377.894 41.6241 377.803 41.4492 377.666 41.1906C377.529 40.9168 377.423 40.7266 377.347 40.6202C377.286 40.5137 377.18 40.354 377.027 40.141C376.89 39.9129 376.769 39.7455 376.662 39.6391C376.571 39.5326 376.449 39.3957 376.297 39.2284C376.145 39.0458 376.001 38.9013 375.864 38.7949C375.407 38.4754 375.058 38.2549 374.814 38.1332H375.316C376.138 37.4335 377.567 36.8783 379.606 36.4676C382.557 35.8744 385.949 35.5778 389.782 35.5778C393.63 35.5778 397.866 36.0797 402.49 37.0836C401.882 37.7529 401.114 38.947 400.186 40.6658C399.273 42.3694 398.817 43.6091 398.817 44.3848C398.817 45.1606 398.665 45.7158 398.361 46.0504L398.406 46.8034C398.406 48.0202 398.087 50.0585 397.448 52.9181C396.185 52.2184 395.22 51.8686 394.55 51.8686C393.881 51.8686 393.394 51.7012 393.09 51.3666C392.284 51.3666 391.592 51.3286 391.014 51.2525C390.451 51.1613 389.903 51.0776 389.371 51.0015C388.854 50.9255 388.451 50.8646 388.162 50.819C388.436 50.9711 388.572 51.7393 388.572 53.1234L388.481 55.5876H395.349V59.2838C395.349 59.7402 395.25 60.4551 395.052 61.4286C394.854 62.3868 394.642 62.904 394.413 62.9801L393.09 61.9077H388.96L388.481 62.4097V66.1743L388.96 66.5394L389.371 66.1743L388.96 65.0791C389.675 65.0944 390.831 65.1856 392.428 65.3529C394.041 65.5203 395.288 65.6039 396.17 65.6039V66.1743L395.76 68.2506L395.349 68.821L395.76 69.323V69.8477H395.349V70.3269L395.76 70.8973C395.486 71.2776 395.349 71.6806 395.349 72.1065V73.5211L394.938 72.9736H394.413V71.4221L393.957 70.8973H391.698C391.394 71.2471 390.884 71.4221 390.17 71.4221Z" fill="white"/>
<g filter="url(#filter0_d_3_7)">
<path d="M143.219 47.4615C142.732 48.6175 142.268 50.6938 141.827 53.6904C141.401 56.6717 140.854 58.8164 140.185 60.1245L140.23 61.0372C140.23 61.5391 140.086 61.9422 139.797 62.2464C139.797 63.0678 139.622 64.1022 139.272 65.3494C138.937 66.5815 138.557 67.4713 138.131 68.0189V68.5665H138.565C138.108 68.9316 137.895 69.6921 137.926 70.8481C137.926 71.2436 137.758 71.6467 137.424 72.0574C137.089 72.4833 136.542 72.8027 135.781 73.0157L135.416 71.9661C135.522 71.8292 135.644 71.6239 135.781 71.3501C135.918 71.0763 136.07 70.8481 136.237 70.6656C135.431 70.6656 134.99 70.9318 134.914 71.4642C134.838 72.0118 134.321 72.2856 133.362 72.2856L133.043 71.7836H132.495L131.925 71.5326L132.13 70.8481L131.606 71.4414V71.487L131.286 71.9661C130.83 71.7684 130.602 71.4186 130.602 70.9166C130.602 70.4298 130.457 69.8747 130.168 69.251C129.894 68.6274 129.758 68.2167 129.758 68.0189C129.758 66.0567 129.476 64.2999 128.913 62.7484L129.324 62.2464C128.624 62.2464 128.252 61.0448 128.206 58.6415C128.191 57.6832 128.16 57.1204 128.115 56.9531C127.674 55.4624 127.392 53.7132 127.271 51.7053C127.164 49.6823 127.073 47.6212 126.997 45.5221C126.936 43.4231 126.738 41.6586 126.404 40.2288L125.947 40.7536V38.6545C125.308 37.7418 124.563 36.9813 123.711 36.3728C122.875 35.7644 122.061 35.4602 121.27 35.4602C121.665 35.4146 122.897 35.2929 124.966 35.0951C130.32 34.6084 133.119 34.3118 133.362 34.2053L134.047 35.1864L133.362 34.7757C133.058 35.1408 132.906 35.7416 132.906 36.5782V37.3996L133.362 37.1714V37.5137L133.066 37.9243C133.188 38.7914 133.416 39.3313 133.75 39.5443L133.362 40.0463V41.1186C133.362 42.1834 133.484 43.7425 133.728 45.7959C133.971 47.8342 134.115 49.2184 134.161 49.9485L133.75 49.515C133.75 50.5797 133.819 52.1693 133.956 54.2836C134.093 56.3827 134.161 57.9646 134.161 59.0293L134.982 56.4283L134.572 55.9035C134.648 55.7514 135.218 52.4887 136.283 46.1154C137.348 39.7268 137.88 36.4717 137.88 36.35L138.336 35.4602L138.268 34.7757H137.88V34.2053L138.656 34.7757L139.135 34.2053C139.546 34.616 141.592 34.8213 145.273 34.8213H147.258C147.516 34.8213 147.874 34.8366 148.33 34.867C148.786 34.8822 149.144 34.8898 149.402 34.8898C148.748 34.9658 148.071 35.4678 147.372 36.3957C146.672 37.3235 146.048 38.4567 145.501 39.7953C144.421 42.4876 143.66 45.0354 143.219 47.4387V47.4615ZM161.906 61.0372L161.381 69.6845C161.7 69.6845 161.86 69.9583 161.86 70.5059V70.7569C161.358 70.6504 161.054 70.3766 160.947 69.9355V70.2549L160.377 70.2777C160.103 70.3082 159.844 70.2549 159.601 70.118C159.358 69.9811 159.236 69.8138 159.236 69.6161C159.236 69.4335 159.251 69.289 159.282 69.1826H159.327C159.327 68.4829 159.054 68.133 158.506 68.133C158.141 68.133 157.791 68.3764 157.456 68.8631C157.122 69.3347 156.924 69.6085 156.863 69.6845C156.224 69.6541 155.859 67.4637 155.768 63.1134C155.722 61.425 155.677 60.4744 155.631 60.2614C155.585 60.0333 155.502 59.6302 155.38 59.0522C155.274 58.4589 155.198 58.0635 155.152 57.8657C155.122 57.668 155.053 57.3029 154.947 56.7705C154.855 56.223 154.795 55.8275 154.764 55.5841L154.582 54.4889C154.506 54.0022 154.452 53.6143 154.422 53.3253C154.391 53.0211 154.346 52.6484 154.285 52.2073C154.239 51.751 154.201 51.3479 154.171 50.998C154.125 50.1767 154.102 49.3933 154.102 48.648L154.376 43.2633H154.787L153.441 40.1375C153.319 39.8485 153.015 39.5291 152.528 39.1792C152.057 38.8142 151.631 38.4339 151.25 38.0384C150.87 37.6277 150.688 37.1638 150.703 36.6466V36.4641L149.767 35.8709L150.041 35.3689L149.357 35.8709L148.923 35.3689C149.927 35.3689 151.349 35.194 153.19 34.8442C155.045 34.4943 156.392 34.3194 157.228 34.3194L157.662 34.8442L160.947 34.3194C161.358 34.7301 162.385 34.9887 164.027 35.0951C165.685 35.2016 166.644 35.2929 166.902 35.3689C166.887 35.3841 166.819 35.445 166.697 35.5515C166.59 35.6579 166.514 35.734 166.469 35.7796C166.438 35.8253 166.362 35.9013 166.241 36.0078C166.134 36.1143 166.051 36.2055 165.99 36.2816C165.929 36.3424 165.845 36.4337 165.739 36.5554C165.647 36.6618 165.571 36.7607 165.511 36.852C165.465 36.928 165.404 37.0193 165.328 37.1258C165.267 37.2323 165.214 37.3311 165.168 37.4224C165.092 37.6201 165.054 37.8179 165.054 38.0156H165.511C164.826 38.8066 164.21 40.031 163.662 41.689L164.142 42.2138C162.925 46.7314 162.316 50.4504 162.316 53.3709L162.773 56.4967C162.529 56.8162 162.377 57.3105 162.316 57.9798L161.86 57.5235L162.316 59.691L161.381 60.1702C161.731 60.1702 161.906 60.4592 161.906 61.0372ZM187.984 64.2771L187.597 68.2243C187.156 68.635 186.92 68.9848 186.889 69.2738C186.859 69.5628 186.844 69.8366 186.844 70.0952L186.41 70.5972C186.395 70.6124 186.38 70.6276 186.365 70.6428C186.288 70.7797 186.197 70.7797 186.091 70.6428C185.984 70.5059 185.931 70.3994 185.931 70.3234C185.931 70.2625 185.954 70.1865 185.999 70.0952H185.178C185.178 70.8405 185.049 71.3577 184.79 71.6467H183.558L183.125 71.1448H182.714L182.303 71.6467V72.1943H181.505V71.6467C181.155 71.6467 180.98 71.0839 180.98 69.9583C180.98 68.8479 181.003 68.1786 181.048 67.9505C180.105 67.2964 179.33 65.532 178.721 62.6571L178.288 63.2275C178.257 63.1667 178.242 63.007 178.242 62.7484C178.242 62.4746 178.402 62.1095 178.721 61.6532H178.288V61.1056L177.877 60.558V59.5085C177.132 58.8544 176.029 54.7019 174.569 47.0508C174.021 44.1151 173.633 42.2746 173.405 41.5293H172.629L172.949 41.0274C172.736 39.8409 172.333 38.7762 171.739 37.8331C171.161 36.89 170.599 36.4109 170.051 36.3957V35.8709H167.769C171.983 35.0647 176.15 34.6616 180.273 34.6616V34.1597H181.048L181.55 34.6616H180.66V36.2359L181.048 36.8064V39.4302H181.505L181.048 39.955C181.353 40.5634 181.505 41.0274 181.505 41.3468V41.5293C181.809 41.94 181.961 42.6397 181.961 43.6284L181.893 45.7731C181.893 46.0317 181.999 46.663 182.212 47.6669C182.44 48.6556 182.607 49.264 182.714 49.4922L182.417 49.1043C182.646 49.515 182.775 50.4581 182.805 51.9335C182.836 53.3937 182.881 54.8236 182.942 56.223C183.018 57.6223 183.224 58.5046 183.558 58.8696C183.908 57.6984 184.174 55.7438 184.357 53.0059C184.539 50.2679 184.684 48.5567 184.79 47.8722L184.38 47.3474L184.79 46.777C184.79 44.2977 184.92 42.5484 185.178 41.5293C185.132 41.5749 185.087 41.5978 185.041 41.5978C184.843 41.5978 184.745 41.4837 184.745 41.2555C184.745 41.0121 184.958 40.2972 185.383 39.1108C185.825 37.9091 186.045 37.1486 186.045 36.8292C186.045 36.4945 186.03 36.2968 185.999 36.2359L186.41 35.7112V34.6616H186.844L187.254 34.1597V34.6616C188.456 34.6616 190.259 34.7909 192.662 35.0495C195.08 35.2929 196.898 35.4146 198.115 35.4146L196.267 36.4185C195.156 37.179 194.114 38.9511 193.141 41.7347C192.167 44.503 191.681 46.9139 191.681 48.9674H191.27C191.27 49.8192 190.996 51.5456 190.449 54.1467C189.901 56.7325 189.483 58.3373 189.194 58.9609H189.604V59.5085L189.194 60.0104C189.194 60.6797 189.072 61.4403 188.829 62.2921C188.601 63.1287 188.319 63.7903 187.984 64.2771ZM211.28 61.0372L210.755 69.6845C211.075 69.6845 211.234 69.9583 211.234 70.5059V70.7569C210.732 70.6504 210.428 70.3766 210.322 69.9355V70.2549L209.751 70.2777C209.477 70.3082 209.219 70.2549 208.975 70.118C208.732 69.9811 208.61 69.8138 208.61 69.6161C208.61 69.4335 208.626 69.289 208.656 69.1826H208.702C208.702 68.4829 208.428 68.133 207.88 68.133C207.515 68.133 207.165 68.3764 206.831 68.8631C206.496 69.3347 206.298 69.6085 206.237 69.6845C205.599 69.6541 205.234 67.4637 205.142 63.1134C205.097 61.425 205.051 60.4744 205.005 60.2614C204.96 60.0333 204.876 59.6302 204.754 59.0522C204.648 58.4589 204.572 58.0635 204.526 57.8657C204.496 57.668 204.427 57.3029 204.321 56.7705C204.23 56.223 204.169 55.8275 204.138 55.5841L203.956 54.4889C203.88 54.0022 203.827 53.6143 203.796 53.3253C203.766 53.0211 203.72 52.6484 203.659 52.2073C203.614 51.751 203.576 51.3479 203.545 50.998C203.5 50.1767 203.477 49.3933 203.477 48.648L203.751 43.2633H204.161L202.815 40.1375C202.693 39.8485 202.389 39.5291 201.902 39.1792C201.431 38.8142 201.005 38.4339 200.625 38.0384C200.244 37.6277 200.062 37.1638 200.077 36.6466V36.4641L199.142 35.8709L199.415 35.3689L198.731 35.8709L198.297 35.3689C199.301 35.3689 200.724 35.194 202.564 34.8442C204.42 34.4943 205.766 34.3194 206.603 34.3194L207.036 34.8442L210.322 34.3194C210.732 34.7301 211.759 34.9887 213.402 35.0951C215.06 35.2016 216.018 35.2929 216.277 35.3689C216.261 35.3841 216.193 35.445 216.071 35.5515C215.965 35.6579 215.889 35.734 215.843 35.7796C215.813 35.8253 215.737 35.9013 215.615 36.0078C215.508 36.1143 215.425 36.2055 215.364 36.2816C215.303 36.3424 215.219 36.4337 215.113 36.5554C215.022 36.6618 214.946 36.7607 214.885 36.852C214.839 36.928 214.778 37.0193 214.702 37.1258C214.641 37.2323 214.588 37.3311 214.543 37.4224C214.467 37.6201 214.428 37.8179 214.428 38.0156H214.885C214.2 38.8066 213.584 40.031 213.037 41.689L213.516 42.2138C212.299 46.7314 211.691 50.4504 211.691 53.3709L212.147 56.4967C211.904 56.8162 211.751 57.3105 211.691 57.9798L211.234 57.5235L211.691 59.691L210.755 60.1702C211.105 60.1702 211.28 60.4592 211.28 61.0372ZM219.015 37.0801C219.015 36.7759 218.771 36.6238 218.284 36.6238H217.76C218.11 36.5782 218.672 36.3881 219.448 36.0534C220.224 35.7188 221.022 35.5515 221.844 35.5515C222.68 35.5515 224.201 35.3765 226.407 35.0267C228.613 34.6768 230.141 34.5019 230.993 34.5019C231.845 34.5019 232.864 34.6692 234.05 35.0039C235.237 35.3385 236.157 35.5058 236.811 35.5058H237.153L238.02 36.1219C238.157 36.1219 239.002 36.9356 240.553 38.5632C242.105 40.1755 242.918 41.111 242.994 41.3696H242.538C243.086 41.978 243.39 42.8983 243.451 44.1304C243.466 44.465 243.474 45.2103 243.474 46.3663C243.474 47.5224 243.261 49.0663 242.835 50.998C242.409 52.9146 241.937 54.6258 241.42 56.1317C240.066 60.1626 239.374 63.5241 239.344 66.2165H238.887C238.887 67.4029 238.675 68.5665 238.249 69.7073C237.823 70.8481 237.237 71.7684 236.492 72.4681L236.332 72.0574L235.921 72.5365H236.195L235.1 73.0613L234.666 72.5365L233.868 73.5861L233.024 72.5365L232.59 73.1754L231.792 73.0613C231.792 71.9814 231.716 71.3197 231.563 71.0763C231.274 70.6048 230.833 70.369 230.24 70.369C229.662 70.369 229.183 70.4298 228.803 70.5515C228.438 70.6732 228.164 70.871 227.981 71.1448C227.799 71.4186 227.662 71.7076 227.571 72.0118C227.221 73.183 226.848 74.0804 226.453 74.7041L226.019 74.1109V73.1754C226.019 72.278 225.89 71.5402 225.631 70.9622H226.019L225.631 70.4375C225.631 65.281 225.068 59.6986 223.943 53.6904C222.832 47.6821 221.334 42.518 219.448 38.1981L219.653 38.2894L219.927 37.1258L219.448 36.6238L219.015 37.0801ZM231.814 65.7829L231.792 66.7184H232.202C232.202 66.4902 232.225 66.3534 232.271 66.3077C232.316 66.2469 232.438 66.2165 232.636 66.2165V65.1669H233.024L233.457 65.6689H233.868L234.256 65.1669C234.575 65.1669 234.735 64.8703 234.735 64.2771L234.666 63.045C234.727 62.9537 234.819 62.7256 234.94 62.3605C235.244 61.387 235.427 60.9003 235.488 60.9003L235.419 59.6226C235.419 59.075 235.587 58.8012 235.921 58.8012C235.921 58.4513 235.815 58.2764 235.602 58.2764C235.815 58.2156 235.921 58.0406 235.921 57.7516V55.6297C235.921 54.93 235.777 54.3977 235.488 54.0326C235.488 53.1656 235.321 52.4279 234.986 51.8194C234.651 51.211 234.142 50.9068 233.457 50.9068H232.202C232.202 51.2566 232.126 51.5989 231.974 51.9335C231.822 52.2681 231.617 52.4355 231.358 52.4355V51.9335H230.993C230.993 52.0552 231.031 52.1693 231.107 52.2757C231.183 52.3822 231.267 52.4355 231.358 52.4355V54.0326L230.993 54.5802V55.0821H231.358V56.7021C231.358 56.9759 231.328 57.1356 231.267 57.1812C231.206 57.2269 231.115 57.2497 230.993 57.2497V58.8012C230.993 59.075 231.023 59.2347 231.084 59.2803C231.145 59.3107 231.236 59.326 231.358 59.326V60.9003H230.993C230.993 61.2805 231.115 61.4707 231.358 61.4707L230.993 61.9498V63.045C230.993 63.4101 231.115 63.7675 231.358 64.1174V64.6193C231.662 65.0148 231.814 65.4027 231.814 65.7829ZM236.332 72.5365L236.492 72.4681L236.629 72.5365H236.332Z" fill="black" fill-opacity="0.6" shape-rendering="crispEdges"/>
<path d="M271.72 64.2771L271.332 68.2243C270.891 68.635 270.655 68.9848 270.625 69.2738C270.594 69.5628 270.579 69.8366 270.579 70.0952L270.146 70.5972C270.13 70.6124 270.115 70.6276 270.1 70.6428C270.024 70.7797 269.933 70.7797 269.826 70.6428C269.72 70.5059 269.667 70.3994 269.667 70.3234C269.667 70.2625 269.689 70.1865 269.735 70.0952H268.914C268.914 70.8405 268.784 71.3577 268.526 71.6467H267.294L266.86 71.1448H266.449L266.039 71.6467V72.1943H265.24V71.6467C264.89 71.6467 264.715 71.0839 264.715 69.9583C264.715 68.8479 264.738 68.1786 264.784 67.9505C263.841 67.2964 263.065 65.532 262.457 62.6571L262.023 63.2275C261.993 63.1667 261.977 63.007 261.977 62.7484C261.977 62.4746 262.137 62.1095 262.457 61.6532H262.023V61.1056L261.612 60.558V59.5085C260.867 58.8544 259.764 54.7019 258.304 47.0508C257.756 44.1151 257.369 42.2746 257.14 41.5293H256.365L256.684 41.0274C256.471 39.8409 256.068 38.7762 255.475 37.8331C254.897 36.89 254.334 36.4109 253.786 36.3957V35.8709H251.505C255.718 35.0647 259.886 34.6616 264.008 34.6616V34.1597H264.784L265.286 34.6616H264.396V36.2359L264.784 36.8064V39.4302H265.24L264.784 39.955C265.088 40.5634 265.24 41.0274 265.24 41.3468V41.5293C265.544 41.94 265.697 42.6397 265.697 43.6284L265.628 45.7731C265.628 46.0317 265.735 46.663 265.948 47.6669C266.176 48.6556 266.343 49.264 266.449 49.4922L266.153 49.1043C266.381 49.515 266.51 50.4581 266.541 51.9335C266.571 53.3937 266.617 54.8236 266.678 56.223C266.754 57.6223 266.959 58.5046 267.294 58.8696C267.644 57.6984 267.91 55.7438 268.092 53.0059C268.275 50.2679 268.419 48.5567 268.526 47.8722L268.115 47.3474L268.526 46.777C268.526 44.2977 268.655 42.5484 268.914 41.5293C268.868 41.5749 268.822 41.5978 268.777 41.5978C268.579 41.5978 268.48 41.4837 268.48 41.2555C268.48 41.0121 268.693 40.2972 269.119 39.1108C269.56 37.9091 269.781 37.1486 269.781 36.8292C269.781 36.4945 269.765 36.2968 269.735 36.2359L270.146 35.7112V34.6616H270.579L270.99 34.1597V34.6616C272.192 34.6616 273.994 34.7909 276.397 35.0495C278.816 35.2929 280.634 35.4146 281.85 35.4146L280.002 36.4185C278.892 37.179 277.85 38.9511 276.876 41.7347C275.903 44.503 275.416 46.9139 275.416 48.9674H275.006C275.006 49.8192 274.732 51.5456 274.184 54.1467C273.637 56.7325 273.218 58.3373 272.929 58.9609H273.34V59.5085L272.929 60.0104C272.929 60.6797 272.808 61.4403 272.564 62.2921C272.336 63.1287 272.055 63.7903 271.72 64.2771ZM295.015 61.0372L294.491 69.6845C294.81 69.6845 294.97 69.9583 294.97 70.5059V70.7569C294.468 70.6504 294.164 70.3766 294.057 69.9355V70.2549L293.487 70.2777C293.213 70.3082 292.954 70.2549 292.711 70.118C292.468 69.9811 292.346 69.8138 292.346 69.6161C292.346 69.4335 292.361 69.289 292.392 69.1826H292.437C292.437 68.4829 292.163 68.133 291.616 68.133C291.251 68.133 290.901 68.3764 290.566 68.8631C290.232 69.3347 290.034 69.6085 289.973 69.6845C289.334 69.6541 288.969 67.4637 288.878 63.1134C288.832 61.425 288.787 60.4744 288.741 60.2614C288.695 60.0333 288.612 59.6302 288.49 59.0522C288.383 58.4589 288.307 58.0635 288.262 57.8657C288.231 57.668 288.163 57.3029 288.056 56.7705C287.965 56.223 287.904 55.8275 287.874 55.5841L287.691 54.4889C287.615 54.0022 287.562 53.6143 287.532 53.3253C287.501 53.0211 287.456 52.6484 287.395 52.2073C287.349 51.751 287.311 51.3479 287.281 50.998C287.235 50.1767 287.212 49.3933 287.212 48.648L287.486 43.2633H287.897L286.551 40.1375C286.429 39.8485 286.125 39.5291 285.638 39.1792C285.166 38.8142 284.74 38.4339 284.36 38.0384C283.98 37.6277 283.797 37.1638 283.813 36.6466V36.4641L282.877 35.8709L283.151 35.3689L282.466 35.8709L282.033 35.3689C283.037 35.3689 284.459 35.194 286.3 34.8442C288.155 34.4943 289.501 34.3194 290.338 34.3194L290.772 34.8442L294.057 34.3194C294.468 34.7301 295.495 34.9887 297.137 35.0951C298.795 35.2016 299.754 35.2929 300.012 35.3689C299.997 35.3841 299.928 35.445 299.807 35.5515C299.7 35.6579 299.624 35.734 299.579 35.7796C299.548 35.8253 299.472 35.9013 299.35 36.0078C299.244 36.1143 299.16 36.2055 299.099 36.2816C299.039 36.3424 298.955 36.4337 298.849 36.5554C298.757 36.6618 298.681 36.7607 298.62 36.852C298.575 36.928 298.514 37.0193 298.438 37.1258C298.377 37.2323 298.324 37.3311 298.278 37.4224C298.202 37.6201 298.164 37.8179 298.164 38.0156H298.62C297.936 38.8066 297.32 40.031 296.772 41.689L297.251 42.2138C296.035 46.7314 295.426 50.4504 295.426 53.3709L295.882 56.4967C295.639 56.8162 295.487 57.3105 295.426 57.9798L294.97 57.5235L295.426 59.691L294.491 60.1702C294.84 60.1702 295.015 60.4592 295.015 61.0372ZM314.797 52.983L313.542 50.8611L313.953 50.3592C313.527 50.3592 313.299 50.3212 313.268 50.2451C313.208 50.0474 313.063 49.8953 312.835 49.7888H313.177L312.721 49.264V49.7888L311.922 49.264L311.101 50.3592V51.4315C311.101 51.8118 311.139 52.1008 311.215 52.2986C311.291 52.4811 311.344 52.618 311.375 52.7093C311.405 52.8005 311.473 52.9222 311.58 53.0743C311.686 53.2264 311.755 53.3329 311.785 53.3937C311.922 53.6219 312.09 53.8349 312.287 54.0326V54.4433L312.721 54.0326C315.124 54.0326 316.934 54.9072 318.151 56.6565C319.368 58.3905 319.976 60.6949 319.976 63.5698H319.566C319.566 64.4064 319.482 64.9844 319.315 65.3038C319.163 65.6232 318.965 65.9655 318.721 66.3305C318.493 66.6804 318.311 66.9846 318.174 67.2432C318.174 67.5018 318.067 67.7984 317.854 68.133C317.185 69.1674 316.85 70.1104 316.85 70.9622L316.417 70.6656V70.9622C316.356 70.9014 316.212 70.7949 315.983 70.6428C315.755 70.5059 315.58 70.4375 315.459 70.4375C315.352 70.4375 315.124 70.5211 314.774 70.6884C314.424 70.871 314.151 70.9622 313.953 70.9622V70.4375H312.721V70.9622H312.287L311.922 70.4375V70.9622H310.234C310.234 71.3729 309.952 71.5783 309.39 71.5783L308.18 71.487L306.401 69.3651C306.401 68.9088 306.256 68.4372 305.967 67.9505C305.678 67.4485 305.382 66.9694 305.077 66.5131C304.773 66.0415 304.613 65.7906 304.598 65.7601V64.6193L304.21 64.3227L304.119 64.6193H303.686C303.686 64.4064 303.838 64.1554 304.142 63.8664C304.446 63.5774 304.598 63.3036 304.598 63.045C305.374 63.045 305.975 62.8701 306.401 62.5202H310.667V61.9498H311.101V63.5698L311.511 64.0489L311.101 64.6193C311.101 64.9844 311.321 65.1669 311.762 65.1669H311.922C311.922 65.532 312.09 65.7145 312.424 65.7145L313.177 65.6689L313.953 64.0489V63.045L313.542 62.5202V60.9003L313.177 61.425L312.721 60.9003L309.846 60.3983C309.633 60.0941 309.367 59.9268 309.047 59.8964V59.326H308.614L308.18 59.8964C305.929 58.6795 304.431 57.4246 303.686 56.1317C303.686 55.5841 303.457 54.6714 303.001 53.3937C302.545 52.116 302.317 51.1045 302.317 50.3592V45.7731C302.317 44.3737 302.613 42.9743 303.206 41.5749C303.8 40.1755 304.553 38.9663 305.465 37.9472C306.393 36.928 307.427 36.099 308.568 35.4602C309.724 34.8213 310.842 34.5019 311.922 34.5019L312.287 35.0039C312.789 34.6692 313.086 34.5019 313.177 34.5019C314.364 34.5019 315.436 34.6692 316.394 35.0039C317.368 35.3233 318.083 35.6808 318.539 36.0762C319.01 36.4565 319.421 36.814 319.771 37.1486C320.121 37.468 320.349 37.6277 320.455 37.6277C320.455 37.9472 320.684 38.2286 321.14 38.4719C321.611 38.7001 321.847 38.9587 321.847 39.2477C322.06 39.3846 322.273 39.666 322.486 40.0919C322.699 40.5026 322.806 40.7916 322.806 40.9589C322.806 41.111 322.798 41.2479 322.783 41.3696H322.304L321.368 52.983L320.935 53.5078H321.847V54.0326H319.976L319.566 53.5078V52.983C319.292 53.2264 318.972 53.4013 318.607 53.5078L317.718 52.4355V52.983H314.797ZM342.382 42.8755V45.3168C342.382 48.2525 342.062 50.3668 341.424 51.6597C341.713 51.6597 341.857 51.4848 341.857 51.1349V50.9524L342.268 50.6102C342.024 50.8535 341.903 51.2718 341.903 51.8651C341.903 52.4431 342.009 53.2949 342.222 54.4205C342.45 55.5461 342.572 56.2153 342.587 56.4283H342.154V55.5385C341.88 56.0861 341.743 56.6565 341.743 57.2497V57.4778L342.268 58.1167L342.176 56.9303H342.633V57.1128C342.633 58.4057 342.458 60.3451 342.108 62.9309C341.758 65.5015 341.583 67.7071 341.583 69.5476C341.583 71.4033 341.348 72.3616 340.876 72.4225L340.534 72.0574L339.986 72.1487L339.621 71.6467L338.617 72.0802L338.686 72.0118L337.682 71.0763L336.838 71.6923L336.29 71.6467L336.769 71.0763C336.769 70.7569 336.807 70.2777 336.883 69.6389C336.974 69 337.02 68.5133 337.02 68.1786L336.609 68.4524L336.199 67.9505H336.564C336.183 67.4485 335.856 66.9162 335.583 66.3534L334.898 66.4902L334.373 66.0796L333.963 66.9238H334.373L334.419 67.4257L334.077 67.3573L334.1 67.7451C334.1 68.0646 334.031 68.46 333.894 68.9316C333.773 69.4031 333.628 69.6389 333.461 69.6389C333.309 69.6389 333.202 69.5172 333.141 69.2738C333.05 70.6428 332.837 71.7912 332.502 72.7191L331.978 72.1943V72.5137C331.978 72.7571 331.894 72.9396 331.727 73.0613C331.514 73.183 331.164 73.2438 330.677 73.2438L330.631 72.7191C330.19 72.8712 329.62 73.0005 328.92 73.107C328.388 72.4833 328.114 71.5174 328.099 70.2093C328.099 68.9012 328.091 68.1482 328.076 67.9505L328.441 67.9961L328.532 67.4257C328.259 67.3497 328.053 66.7564 327.916 65.646C327.795 64.5204 327.719 63.9044 327.688 63.7979C328.251 63.7979 328.532 63.2351 328.532 62.1095V61.6988L328.076 62.2008L327.985 60.444C327.985 59.729 328.038 58.8164 328.145 57.706C328.266 56.5956 328.411 55.797 328.578 55.3103H328.167L328.966 53.0287C328.966 52.4202 328.837 51.5076 328.578 50.2907C328.335 49.0739 328.213 48.1308 328.213 47.4615C328.213 46.7922 328.487 46.3055 329.034 46.0013C328.502 44.2825 328.228 42.4191 328.213 40.4113L328.578 39.8637C328.304 39.742 327.567 39.0423 326.365 37.7646C325.178 36.4717 324.403 35.8253 324.038 35.8253H323.901C323.901 35.4298 325.536 35.0571 328.806 34.7073C332.077 34.3422 334.883 34.1597 337.225 34.1597C337.454 34.1597 337.773 34.3422 338.184 34.7073C339.324 34.327 340.914 34.1369 342.952 34.1369L346.808 34.1597C344.937 35.3309 343.713 36.6238 343.135 38.0384C342.633 39.2401 342.382 40.8524 342.382 42.8755ZM334.191 57.9798L334.236 58.5046H333.826L333.985 60.2614C333.985 60.8242 333.841 61.3034 333.552 61.6988L333.575 62.2008L333.985 61.6988H336.495L336.381 59.5541L336.13 59.0293L336.29 57.9798C336.29 56.5652 336.107 55.8579 335.742 55.8579L336.13 55.3103H335.742L336.085 54.854H335.697L335.651 54.2836C335.91 54.2836 336.039 54.1163 336.039 53.7816H335.628L335.514 51.2262C335.438 51.789 335.195 52.8385 334.784 54.3748C334.389 55.8959 334.191 57.0976 334.191 57.9798ZM342.222 60.7177L342.017 60.6265C341.986 60.6265 341.971 60.7177 341.971 60.9003V61.2653C341.971 61.2349 342.085 61.0372 342.313 60.6721C342.283 60.7025 342.253 60.7177 342.222 60.7177ZM341.013 72.5365L340.785 72.4225L341.013 72.5365ZM338.572 72.1487C338.572 72.103 338.587 72.0802 338.617 72.0802L338.572 72.1487ZM359.836 50.998C359.578 50.3136 359.175 49.9713 358.627 49.9713L358.193 49.4237L357.806 49.9713H356.961V50.9524C356.961 51.6825 356.825 52.2453 356.551 52.6408V54.6943H356.14V55.2647L356.551 55.7666V56.4283C356.551 56.4891 356.414 56.9759 356.14 57.8885L356.551 58.4133H356.961L356.939 59.3944C356.939 59.8051 357.083 60.1854 357.372 60.5352V61.4707C357.372 62.2008 357.517 62.7712 357.806 63.1819H357.372V63.6839L357.806 63.4101L358.193 64.2314L357.806 64.7334H358.193L359.015 65.7829V66.3077L359.426 65.7829H359.836L360.247 66.3077V65.7829C361.114 65.7829 361.798 65.4331 362.3 64.7334H362.529L362.3 62.6115H361.913C361.639 62.6115 361.274 62.7788 360.817 63.1134C360.361 63.4329 360.034 63.623 359.836 63.6839C359.836 62.9081 359.768 61.7521 359.631 60.2158C359.494 58.6795 359.426 57.5311 359.426 56.7705C359.502 56.801 361.122 57.1736 364.285 57.8885C367.449 58.6034 369.145 58.9609 369.373 58.9609C368.887 59.9496 368.613 61.8357 368.552 64.6193C368.506 67.4333 368.309 69.213 367.959 69.9583C367.609 70.7036 367.153 71.0763 366.59 71.0763C365.632 71.8825 364.894 72.4149 364.377 72.6734V72.354C364.377 71.8368 364.232 71.5783 363.943 71.5783V71.0763L363.555 70.8481L363.122 71.5783L362.62 71.8521L362.3 71.5783L361.913 72.1487H361.502V71.5783L361.068 72.1487H361.502V72.6734L361.068 73.0157V72.1487L360.658 72.6734L359.836 71.5783H359.015V71.0763H358.627V71.5783C358.338 71.9585 358.193 72.5061 358.193 73.221C357.646 73.1906 357.372 72.643 357.372 71.5783L356.961 71.0763H356.551C356.52 71.5022 356.391 71.8749 356.163 72.1943C355.935 72.5137 355.646 72.6734 355.296 72.6734L354.908 72.1487H355.296V71.5783H354.497L354.087 71.0763C353.721 71.0763 353.448 70.5515 353.265 69.502L352.946 69.7986C352.535 69.7986 352.071 68.7719 351.554 66.7184C351.356 65.9427 351.174 65.4559 351.006 65.2582C351.006 62.0183 350.246 58.497 348.725 54.6943H349.158C348.884 54.39 348.504 52.694 348.017 49.6062C347.546 46.5032 347.31 44.465 347.31 43.4915C347.31 42.518 347.485 41.8411 347.835 41.4609V39.3846L349.637 37.8103H350.527C350.527 37.0193 350.938 36.3652 351.759 35.8481C352.596 35.3157 353.425 35.0495 354.246 35.0495C354.444 35.0495 354.665 35.0799 354.908 35.1408C355.182 34.7909 355.668 34.616 356.368 34.616H356.551V35.1408H356.961C356.961 34.7757 357.091 34.5932 357.349 34.5932L357.806 34.616L356.961 36.1903L357.806 35.1408L358.627 35.6427L358.193 35.1408V34.616L359.015 35.1408C359.593 34.9734 359.905 34.8898 359.95 34.8898C362.886 34.8898 365.396 35.8709 367.48 37.8331C368.468 38.7762 369.252 39.9778 369.83 41.438C370.408 42.8831 370.697 44.4802 370.697 46.2294C370.697 46.6706 370.438 47.9711 369.921 50.131C369.419 52.291 369.168 53.7892 369.168 54.6258C369.168 55.4624 369.305 56.01 369.579 56.2686C368.56 56.2686 367.16 56.1013 365.381 55.7666C363.601 55.432 362.308 55.2647 361.502 55.2647C361.213 54.8996 361.068 54.5422 361.068 54.1923V53.6447H361.502L360.658 52.6408L361.068 52.0704H360.658L360.247 51.5228V50.7242L359.836 50.998ZM387.421 70.5059L386.417 70.4831L385.733 71.0307L384.82 69.9811V69.4107C384.516 69.0913 384.067 68.9316 383.474 68.9316H382.561L382.082 69.4107V69.9811C381.808 69.9811 381.58 70.2473 381.398 70.7797C381.215 71.3121 380.994 71.5783 380.736 71.5783V72.0574C380.584 71.236 380.28 69.7302 379.823 67.5398C378.865 63.0678 378.386 59.653 378.386 57.2953C378.386 56.8238 378.401 56.4739 378.431 56.2458L377.998 55.721L375.762 42.4876H376.218V41.94H375.762C375.716 41.8639 375.617 41.6814 375.465 41.3924C375.328 41.0882 375.237 40.8905 375.192 40.7992C375.146 40.7079 375.055 40.533 374.918 40.2744C374.781 40.0006 374.674 39.8105 374.598 39.704C374.537 39.5975 374.431 39.4378 374.279 39.2249C374.142 38.9967 374.02 38.8294 373.914 38.7229C373.823 38.6164 373.701 38.4795 373.549 38.3122C373.397 38.1297 373.252 37.9852 373.115 37.8787C372.659 37.5593 372.309 37.3387 372.066 37.217H372.568C373.389 36.5173 374.819 35.9622 376.857 35.5515C379.808 34.9582 383.2 34.6616 387.033 34.6616C390.882 34.6616 395.118 35.1636 399.742 36.1675C399.133 36.8368 398.365 38.0308 397.437 39.7496C396.525 41.4533 396.068 42.6929 396.068 43.4687C396.068 44.2444 395.916 44.7996 395.612 45.1343L395.658 45.8872C395.658 47.1041 395.338 49.1423 394.699 52.002C393.437 51.3023 392.471 50.9524 391.802 50.9524C391.132 50.9524 390.646 50.7851 390.342 50.4504C389.535 50.4504 388.843 50.4124 388.265 50.3364C387.702 50.2451 387.155 50.1614 386.622 50.0854C386.105 50.0093 385.702 49.9485 385.413 49.9029C385.687 50.055 385.824 50.8231 385.824 52.2073L385.733 54.6714H392.6V58.3677C392.6 58.824 392.501 59.5389 392.304 60.5124C392.106 61.4707 391.893 61.9878 391.665 62.0639L390.342 60.9915H386.212L385.733 61.4935V65.2582L386.212 65.6232L386.622 65.2582L386.212 64.163C386.927 64.1782 388.083 64.2695 389.68 64.4368C391.292 64.6041 392.539 64.6878 393.422 64.6878V65.2582L393.011 67.3344L392.6 67.9049L393.011 68.4068V68.9316H392.6V69.4107L393.011 69.9811C392.737 70.3614 392.6 70.7645 392.6 71.1904V72.605L392.19 72.0574H391.665V70.5059L391.209 69.9811H388.95C388.646 70.331 388.136 70.5059 387.421 70.5059Z" fill="white" fill-opacity="0.6" shape-rendering="crispEdges"/>
</g>
<g filter="url(#filter1_d_3_7)">
<path d="M145.069 48.2145C144.586 49.3624 144.125 51.4239 143.687 54.3993C143.264 57.3595 142.72 59.489 142.056 60.7879L142.101 61.6941C142.101 62.1925 141.958 62.5927 141.671 62.8948C141.671 63.7104 141.497 64.7374 141.15 65.9758C140.817 67.1992 140.44 68.0827 140.017 68.6264V69.1701H140.447C139.994 69.5326 139.783 70.2878 139.813 71.4356C139.813 71.8283 139.647 72.2285 139.315 72.6363C138.982 73.0592 138.439 73.3764 137.683 73.5878L137.321 72.5457C137.427 72.4098 137.548 72.2059 137.683 71.934C137.819 71.6622 137.97 71.4356 138.137 71.2544C137.336 71.2544 136.898 71.5187 136.823 72.0473C136.747 72.591 136.234 72.8629 135.282 72.8629L134.965 72.3645H134.421L133.855 72.1153L134.059 71.4356L133.538 72.0246V72.07L133.221 72.5457C132.767 72.3494 132.541 72.002 132.541 71.5036C132.541 71.0203 132.397 70.469 132.11 69.8498C131.839 69.2306 131.703 68.8228 131.703 68.6264C131.703 66.6781 131.423 64.9337 130.864 63.3932L131.272 62.8948C130.577 62.8948 130.207 61.7016 130.162 59.3153C130.147 58.3638 130.117 57.805 130.071 57.6389C129.634 56.1588 129.354 54.4219 129.233 52.4283C129.128 50.4196 129.037 48.3731 128.961 46.2889C128.901 44.2046 128.705 42.4527 128.372 41.033L127.919 41.554V39.4698C127.285 38.5636 126.545 37.8085 125.699 37.2043C124.868 36.6002 124.06 36.2981 123.275 36.2981C123.668 36.2528 124.891 36.132 126.945 35.9357C132.261 35.4524 135.04 35.1579 135.282 35.0521L135.962 36.0263L135.282 35.6185C134.98 35.981 134.829 36.5776 134.829 37.4082V38.2238L135.282 37.9973V38.3371L134.988 38.7449C135.108 39.6057 135.335 40.1419 135.667 40.3533L135.282 40.8517V41.9165C135.282 42.9737 135.403 44.5218 135.645 46.5607C135.886 48.5846 136.03 49.9589 136.075 50.6839L135.667 50.2535C135.667 51.3107 135.735 52.889 135.871 54.9883C136.007 57.0725 136.075 58.6433 136.075 59.7005L136.891 57.1178L136.483 56.5968C136.558 56.4457 137.125 53.2061 138.182 46.8779C139.239 40.5346 139.768 37.3025 139.768 37.1817L140.221 36.2981L140.153 35.6185H139.768V35.0521L140.538 35.6185L141.014 35.0521C141.422 35.4599 143.453 35.6638 147.108 35.6638H149.079C149.336 35.6638 149.69 35.6789 150.144 35.7091C150.597 35.7242 150.952 35.7318 151.208 35.7318C150.559 35.8073 149.887 36.3057 149.192 37.227C148.497 38.1483 147.878 39.2735 147.334 40.6025C146.262 43.2758 145.507 45.8056 145.069 48.1919V48.2145ZM163.623 61.6941L163.102 70.2802C163.419 70.2802 163.578 70.5521 163.578 71.0958V71.345C163.079 71.2393 162.777 70.9674 162.672 70.5294V70.8466L162.105 70.8693C161.833 70.8995 161.577 70.8466 161.335 70.7107C161.093 70.5747 160.973 70.4086 160.973 70.2123C160.973 70.031 160.988 69.8875 161.018 69.7818H161.063C161.063 69.0871 160.791 68.7397 160.248 68.7397C159.885 68.7397 159.538 68.9814 159.205 69.4647C158.873 69.9329 158.677 70.2047 158.616 70.2802C157.982 70.25 157.62 68.0752 157.529 63.7557C157.484 62.0792 157.438 61.1353 157.393 60.9238C157.348 60.6973 157.265 60.297 157.144 59.7231C157.038 59.1341 156.963 58.7414 156.917 58.5451C156.887 58.3487 156.819 57.9863 156.713 57.4577C156.623 56.9139 156.562 56.5213 156.532 56.2796L156.351 55.1922C156.275 54.7089 156.223 54.3238 156.192 54.0368C156.162 53.7347 156.117 53.3647 156.056 52.9267C156.011 52.4736 155.973 52.0734 155.943 51.726C155.898 50.9104 155.875 50.1326 155.875 49.3926L156.147 44.0461H156.555L155.218 40.9424C155.097 40.6554 154.795 40.3382 154.312 39.9909C153.844 39.6284 153.421 39.2508 153.043 38.8581C152.666 38.4503 152.485 37.9897 152.5 37.4762V37.295L151.571 36.7059L151.843 36.2075L151.163 36.7059L150.733 36.2075C151.729 36.2075 153.142 36.0338 154.969 35.6865C156.812 35.3391 158.148 35.1654 158.979 35.1654L159.409 35.6865L162.672 35.1654C163.079 35.5732 164.099 35.8299 165.73 35.9357C167.376 36.0414 168.328 36.132 168.585 36.2075C168.569 36.2226 168.501 36.283 168.381 36.3888C168.275 36.4945 168.199 36.57 168.154 36.6153C168.124 36.6606 168.048 36.7361 167.928 36.8419C167.822 36.9476 167.739 37.0382 167.678 37.1137C167.618 37.1741 167.535 37.2647 167.429 37.3856C167.339 37.4913 167.263 37.5895 167.203 37.6801C167.157 37.7556 167.097 37.8462 167.021 37.9519C166.961 38.0577 166.908 38.1558 166.863 38.2465C166.787 38.4428 166.749 38.6391 166.749 38.8355H167.203C166.523 39.6208 165.911 40.8366 165.368 42.4829L165.843 43.0039C164.635 47.4896 164.031 51.1823 164.031 54.0821L164.484 57.1858C164.242 57.503 164.091 57.9938 164.031 58.6584L163.578 58.2053L164.031 60.3575L163.102 60.8332C163.449 60.8332 163.623 61.1202 163.623 61.6941ZM189.517 64.9111L189.132 68.8303C188.694 69.2381 188.46 69.5855 188.43 69.8724C188.4 70.1594 188.385 70.4313 188.385 70.688L187.954 71.1864C187.939 71.2015 187.924 71.2166 187.909 71.2317C187.833 71.3677 187.743 71.3677 187.637 71.2317C187.531 71.0958 187.479 70.9901 187.479 70.9146C187.479 70.8541 187.501 70.7786 187.547 70.688H186.731C186.731 71.4281 186.603 71.9416 186.346 72.2285H185.122L184.692 71.7301H184.284L183.876 72.2285V72.7722H183.084V72.2285C182.736 72.2285 182.562 71.6697 182.562 70.5521C182.562 69.4496 182.585 68.785 182.63 68.5585C181.694 67.909 180.924 66.1571 180.32 63.3026L179.889 63.8689C179.859 63.8085 179.844 63.6499 179.844 63.3932C179.844 63.1213 180.003 62.7589 180.32 62.3058H179.889V61.7621L179.481 61.2183V60.1762C178.741 59.5268 177.646 55.4036 176.197 47.8067C175.653 44.8918 175.268 43.0644 175.041 42.3243H174.271L174.588 41.8259C174.377 40.6479 173.976 39.5906 173.387 38.6542C172.813 37.7178 172.255 37.2421 171.711 37.227V36.7059H169.445C173.629 35.9055 177.767 35.5052 181.86 35.5052V35.0068H182.63L183.129 35.5052H182.245V37.0684L182.63 37.6348V40.2401H183.084L182.63 40.7611C182.933 41.3653 183.084 41.8259 183.084 42.1431V42.3243C183.386 42.7321 183.537 43.4268 183.537 44.4085L183.469 46.5381C183.469 46.7948 183.574 47.4216 183.786 48.4184C184.012 49.4001 184.179 50.0043 184.284 50.2308L183.99 49.8457C184.216 50.2535 184.345 51.1899 184.375 52.6549C184.405 54.1048 184.45 55.5245 184.511 56.9139C184.586 58.3034 184.79 59.1794 185.122 59.5419C185.47 58.3789 185.734 56.4382 185.915 53.7196C186.097 51.0011 186.24 49.302 186.346 48.6223L185.938 48.1013L186.346 47.5349C186.346 45.0731 186.474 43.3362 186.731 42.3243C186.686 42.3696 186.64 42.3923 186.595 42.3923C186.399 42.3923 186.301 42.279 186.301 42.0524C186.301 41.8108 186.512 41.1009 186.935 39.9229C187.373 38.7298 187.592 37.9746 187.592 37.6574C187.592 37.3252 187.577 37.1288 187.547 37.0684L187.954 36.5473V35.5052H188.385L188.793 35.0068V35.5052C189.986 35.5052 191.775 35.6336 194.162 35.8904C196.563 36.132 198.368 36.2528 199.576 36.2528L197.741 37.2496C196.639 38.0048 195.604 39.7643 194.637 42.5282C193.671 45.277 193.188 47.6708 193.188 49.7097H192.78C192.78 50.5555 192.508 52.2697 191.964 54.8524C191.42 57.4199 191.005 59.0133 190.718 59.6325H191.126V60.1762L190.718 60.6746C190.718 61.3392 190.597 62.0943 190.356 62.9401C190.129 63.7708 189.85 64.4278 189.517 64.9111ZM212.648 61.6941L212.127 70.2802C212.444 70.2802 212.603 70.5521 212.603 71.0958V71.345C212.104 71.2393 211.802 70.9674 211.696 70.5294V70.8466L211.13 70.8693C210.858 70.8995 210.601 70.8466 210.36 70.7107C210.118 70.5747 209.997 70.4086 209.997 70.2123C209.997 70.031 210.012 69.8875 210.043 69.7818H210.088C210.088 69.0871 209.816 68.7397 209.272 68.7397C208.91 68.7397 208.563 68.9814 208.23 69.4647C207.898 69.9329 207.702 70.2047 207.641 70.2802C207.007 70.25 206.644 68.0752 206.554 63.7557C206.509 62.0792 206.463 61.1353 206.418 60.9238C206.373 60.6973 206.29 60.297 206.169 59.7231C206.063 59.1341 205.987 58.7414 205.942 58.5451C205.912 58.3487 205.844 57.9863 205.738 57.4577C205.648 56.9139 205.587 56.5213 205.557 56.2796L205.376 55.1922C205.3 54.7089 205.247 54.3238 205.217 54.0368C205.187 53.7347 205.142 53.3647 205.081 52.9267C205.036 52.4736 204.998 52.0734 204.968 51.726C204.923 50.9104 204.9 50.1326 204.9 49.3926L205.172 44.0461H205.58L204.243 40.9424C204.122 40.6554 203.82 40.3382 203.337 39.9909C202.869 39.6284 202.446 39.2508 202.068 38.8581C201.691 38.4503 201.509 37.9897 201.524 37.4762V37.295L200.596 36.7059L200.868 36.2075L200.188 36.7059L199.757 36.2075C200.754 36.2075 202.166 36.0338 203.994 35.6865C205.836 35.3391 207.173 35.1654 208.004 35.1654L208.434 35.6865L211.696 35.1654C212.104 35.5732 213.124 35.8299 214.755 35.9357C216.401 36.0414 217.353 36.132 217.609 36.2075C217.594 36.2226 217.526 36.283 217.405 36.3888C217.3 36.4945 217.224 36.57 217.179 36.6153C217.149 36.6606 217.073 36.7361 216.952 36.8419C216.847 36.9476 216.764 37.0382 216.703 37.1137C216.643 37.1741 216.56 37.2647 216.454 37.3856C216.363 37.4913 216.288 37.5895 216.227 37.6801C216.182 37.7556 216.122 37.8462 216.046 37.9519C215.986 38.0577 215.933 38.1558 215.888 38.2465C215.812 38.4428 215.774 38.6391 215.774 38.8355H216.227C215.548 39.6208 214.936 40.8366 214.392 42.4829L214.868 43.0039C213.66 47.4896 213.056 51.1823 213.056 54.0821L213.509 57.1858C213.267 57.503 213.116 57.9938 213.056 58.6584L212.603 58.2053L213.056 60.3575L212.127 60.8332C212.474 60.8332 212.648 61.1202 212.648 61.6941ZM220.328 37.9066C220.328 37.6046 220.086 37.4535 219.603 37.4535H219.082C219.429 37.4082 219.988 37.2194 220.758 36.8872C221.529 36.5549 222.322 36.3888 223.137 36.3888C223.968 36.3888 225.478 36.2151 227.668 35.8677C229.858 35.5203 231.376 35.3466 232.222 35.3466C233.067 35.3466 234.079 35.5128 235.257 35.8451C236.435 36.1773 237.349 36.3435 237.999 36.3435H238.338L239.199 36.9551C239.335 36.9551 240.173 37.7632 241.714 39.3792C243.254 40.9801 244.063 41.909 244.138 42.1657H243.685C244.229 42.7698 244.531 43.6836 244.591 44.9069C244.606 45.2392 244.614 45.9793 244.614 47.1271C244.614 48.2749 244.402 49.8079 243.979 51.726C243.557 53.629 243.088 55.3281 242.575 56.8233C241.231 60.8257 240.543 64.1635 240.513 66.8367H240.06C240.06 68.0148 239.849 69.1701 239.426 70.3029C239.003 71.4356 238.421 72.3494 237.681 73.0441L237.523 72.6363L237.115 73.1121H237.387L236.299 73.6331L235.869 73.1121L235.076 74.1542L234.238 73.1121L233.807 73.7464L233.015 73.6331C233.015 72.5608 232.939 71.9038 232.788 71.6622C232.501 71.194 232.063 70.9599 231.474 70.9599C230.9 70.9599 230.424 71.0203 230.047 71.1411C229.684 71.2619 229.412 71.4583 229.231 71.7301C229.05 72.002 228.914 72.2889 228.823 72.591C228.476 73.754 228.106 74.645 227.713 75.2643L227.283 74.6752V73.7464C227.283 72.8553 227.155 72.1228 226.898 71.5489H227.283L226.898 71.0278C226.898 65.9079 226.339 60.365 225.221 54.3993C224.119 48.4335 222.631 43.306 220.758 39.0167L220.962 39.1073L221.234 37.9519L220.758 37.4535L220.328 37.9066ZM233.037 66.4063L233.015 67.3351H233.422C233.422 67.1086 233.445 66.9726 233.49 66.9273C233.536 66.8669 233.656 66.8367 233.853 66.8367V65.7946H234.238L234.668 66.293H235.076L235.461 65.7946C235.778 65.7946 235.937 65.5001 235.937 64.9111L235.869 63.6877C235.929 63.5971 236.02 63.3705 236.141 63.0081C236.443 62.0415 236.624 61.5582 236.685 61.5582L236.617 60.2895C236.617 59.7458 236.783 59.4739 237.115 59.4739C237.115 59.1266 237.009 58.9529 236.798 58.9529C237.009 58.8925 237.115 58.7188 237.115 58.4318V56.3249C237.115 55.6302 236.972 55.1016 236.685 54.7391C236.685 53.8782 236.518 53.1457 236.186 52.5416C235.854 51.9375 235.348 51.6354 234.668 51.6354H233.422C233.422 51.9828 233.347 52.3226 233.196 52.6549C233.045 52.9871 232.841 53.1533 232.584 53.1533V52.6549H232.222C232.222 52.7757 232.259 52.889 232.335 52.9947C232.41 53.1004 232.493 53.1533 232.584 53.1533V54.7391L232.222 55.2828V55.7812H232.584V57.3897C232.584 57.6615 232.554 57.8201 232.493 57.8654C232.433 57.9108 232.342 57.9334 232.222 57.9334V59.4739C232.222 59.7458 232.252 59.9044 232.312 59.9497C232.373 59.9799 232.463 59.995 232.584 59.995V61.5582H232.222C232.222 61.9357 232.342 62.1245 232.584 62.1245L232.222 62.6003V63.6877C232.222 64.0502 232.342 64.4051 232.584 64.7525V65.2509C232.886 65.6436 233.037 66.0287 233.037 66.4063ZM237.523 73.1121L237.681 73.0441L237.817 73.1121H237.523Z" fill="#FFD470" fill-opacity="0.6" shape-rendering="crispEdges"/>
<path d="M272.66 64.9111L272.275 68.8303C271.837 69.2381 271.603 69.5855 271.573 69.8724C271.543 70.1594 271.528 70.4313 271.528 70.688L271.097 71.1864C271.082 71.2015 271.067 71.2166 271.052 71.2317C270.976 71.3677 270.886 71.3677 270.78 71.2317C270.674 71.0958 270.621 70.9901 270.621 70.9146C270.621 70.8541 270.644 70.7786 270.689 70.688H269.874C269.874 71.4281 269.745 71.9416 269.489 72.2285H268.265L267.835 71.7301H267.427L267.019 72.2285V72.7722H266.226V72.2285C265.879 72.2285 265.705 71.6697 265.705 70.5521C265.705 69.4496 265.728 68.785 265.773 68.5585C264.837 67.909 264.067 66.1571 263.462 63.3026L263.032 63.8689C263.002 63.8085 262.987 63.6499 262.987 63.3932C262.987 63.1213 263.145 62.7589 263.462 62.3058H263.032V61.7621L262.624 61.2183V60.1762C261.884 59.5268 260.789 55.4036 259.339 47.8067C258.796 44.8918 258.41 43.0644 258.184 42.3243H257.414L257.731 41.8259C257.519 40.6479 257.119 39.5906 256.53 38.6542C255.956 37.7178 255.397 37.2421 254.854 37.227V36.7059H252.588C256.772 35.9055 260.91 35.5052 265.003 35.5052V35.0068H265.773L266.272 35.5052H265.388V37.0684L265.773 37.6348V40.2401H266.226L265.773 40.7611C266.075 41.3653 266.226 41.8259 266.226 42.1431V42.3243C266.528 42.7321 266.679 43.4268 266.679 44.4085L266.611 46.5381C266.611 46.7948 266.717 47.4216 266.929 48.4184C267.155 49.4001 267.321 50.0043 267.427 50.2308L267.133 49.8457C267.359 50.2535 267.487 51.1899 267.518 52.6549C267.548 54.1048 267.593 55.5245 267.654 56.9139C267.729 58.3034 267.933 59.1794 268.265 59.5419C268.613 58.3789 268.877 56.4382 269.058 53.7196C269.239 51.0011 269.383 49.302 269.489 48.6223L269.081 48.1013L269.489 47.5349C269.489 45.0731 269.617 43.3362 269.874 42.3243C269.828 42.3696 269.783 42.3923 269.738 42.3923C269.542 42.3923 269.443 42.279 269.443 42.0524C269.443 41.8108 269.655 41.1009 270.078 39.9229C270.516 38.7298 270.735 37.9746 270.735 37.6574C270.735 37.3252 270.72 37.1288 270.689 37.0684L271.097 36.5473V35.5052H271.528L271.935 35.0068V35.5052C273.129 35.5052 274.918 35.6336 277.305 35.8904C279.706 36.132 281.511 36.2528 282.719 36.2528L280.884 37.2496C279.781 38.0048 278.747 39.7643 277.78 42.5282C276.814 45.277 276.33 47.6708 276.33 49.7097H275.923C275.923 50.5555 275.651 52.2697 275.107 54.8524C274.563 57.4199 274.148 59.0133 273.861 59.6325H274.269V60.1762L273.861 60.6746C273.861 61.3392 273.74 62.0943 273.499 62.9401C273.272 63.7708 272.993 64.4278 272.66 64.9111ZM295.791 61.6941L295.27 70.2802C295.587 70.2802 295.745 70.5521 295.745 71.0958V71.345C295.247 71.2393 294.945 70.9674 294.839 70.5294V70.8466L294.273 70.8693C294.001 70.8995 293.744 70.8466 293.503 70.7107C293.261 70.5747 293.14 70.4086 293.14 70.2123C293.14 70.031 293.155 69.8875 293.185 69.7818H293.231C293.231 69.0871 292.959 68.7397 292.415 68.7397C292.053 68.7397 291.705 68.9814 291.373 69.4647C291.041 69.9329 290.844 70.2047 290.784 70.2802C290.15 70.25 289.787 68.0752 289.697 63.7557C289.651 62.0792 289.606 61.1353 289.561 60.9238C289.515 60.6973 289.432 60.297 289.312 59.7231C289.206 59.1341 289.13 58.7414 289.085 58.5451C289.055 58.3487 288.987 57.9863 288.881 57.4577C288.79 56.9139 288.73 56.5213 288.7 56.2796L288.519 55.1922C288.443 54.7089 288.39 54.3238 288.36 54.0368C288.33 53.7347 288.285 53.3647 288.224 52.9267C288.179 52.4736 288.141 52.0734 288.111 51.726C288.066 50.9104 288.043 50.1326 288.043 49.3926L288.315 44.0461H288.723L287.386 40.9424C287.265 40.6554 286.963 40.3382 286.48 39.9909C286.011 39.6284 285.589 39.2508 285.211 38.8581C284.833 38.4503 284.652 37.9897 284.667 37.4762V37.295L283.738 36.7059L284.01 36.2075L283.331 36.7059L282.9 36.2075C283.897 36.2075 285.309 36.0338 287.137 35.6865C288.979 35.3391 290.316 35.1654 291.147 35.1654L291.577 35.6865L294.839 35.1654C295.247 35.5732 296.267 35.8299 297.898 35.9357C299.544 36.0414 300.495 36.132 300.752 36.2075C300.737 36.2226 300.669 36.283 300.548 36.3888C300.443 36.4945 300.367 36.57 300.322 36.6153C300.292 36.6606 300.216 36.7361 300.095 36.8419C299.989 36.9476 299.906 37.0382 299.846 37.1137C299.786 37.1741 299.702 37.2647 299.597 37.3856C299.506 37.4913 299.431 37.5895 299.37 37.6801C299.325 37.7556 299.265 37.8462 299.189 37.9519C299.129 38.0577 299.076 38.1558 299.03 38.2465C298.955 38.4428 298.917 38.6391 298.917 38.8355H299.37C298.691 39.6208 298.079 40.8366 297.535 42.4829L298.011 43.0039C296.803 47.4896 296.199 51.1823 296.199 54.0821L296.652 57.1858C296.41 57.503 296.259 57.9938 296.199 58.6584L295.745 58.2053L296.199 60.3575L295.27 60.8332C295.617 60.8332 295.791 61.1202 295.791 61.6941ZM315.432 53.697L314.186 51.5901L314.594 51.0917C314.171 51.0917 313.945 51.0539 313.915 50.9784C313.854 50.7821 313.711 50.631 313.484 50.5253H313.824L313.371 50.0043V50.5253L312.578 50.0043L311.762 51.0917V52.1565C311.762 52.534 311.8 52.821 311.876 53.0173C311.951 53.1986 312.004 53.3345 312.034 53.4251C312.064 53.5157 312.132 53.6366 312.238 53.7876C312.344 53.9386 312.412 54.0443 312.442 54.1048C312.578 54.3313 312.744 54.5427 312.94 54.7391V55.1469L313.371 54.7391C315.757 54.7391 317.554 55.6075 318.763 57.3444C319.971 59.0661 320.575 61.3543 320.575 64.2088H320.167C320.167 65.0394 320.084 65.6134 319.918 65.9305C319.767 66.2477 319.571 66.5875 319.329 66.95C319.102 67.2974 318.921 67.5994 318.785 67.8562C318.785 68.1129 318.68 68.4074 318.468 68.7397C317.804 69.7667 317.471 70.7031 317.471 71.5489L317.041 71.2544V71.5489C316.981 71.4885 316.837 71.3828 316.61 71.2317C316.384 71.0958 316.21 71.0278 316.089 71.0278C315.984 71.0278 315.757 71.1109 315.41 71.277C315.062 71.4583 314.791 71.5489 314.594 71.5489V71.0278H313.371V71.5489H312.94L312.578 71.0278V71.5489H310.901C310.901 71.9567 310.622 72.1606 310.063 72.1606L308.863 72.07L307.095 69.9631C307.095 69.51 306.952 69.0418 306.665 68.5585C306.378 68.0601 306.084 67.5843 305.782 67.1312C305.479 66.663 305.321 66.4138 305.306 66.3836V65.2509L304.921 64.9564L304.83 65.2509H304.4C304.4 65.0394 304.551 64.7902 304.853 64.5033C305.155 64.2163 305.306 63.9445 305.306 63.6877C306.076 63.6877 306.673 63.514 307.095 63.1666H311.332V62.6003H311.762V64.2088L312.17 64.6845L311.762 65.2509C311.762 65.6134 311.981 65.7946 312.419 65.7946H312.578C312.578 66.1571 312.744 66.3383 313.076 66.3383L313.824 66.293L314.594 64.6845V63.6877L314.186 63.1666V61.5582L313.824 62.0792L313.371 61.5582L310.516 61.0598C310.305 60.7577 310.041 60.5916 309.723 60.5614V59.995H309.293L308.863 60.5614C306.627 59.3531 305.14 58.1071 304.4 56.8233C304.4 56.2796 304.173 55.3734 303.72 54.1048C303.267 52.8361 303.04 51.8317 303.04 51.0917V46.5381C303.04 45.1486 303.335 43.7591 303.924 42.3696C304.513 40.9801 305.26 39.7794 306.167 38.7675C307.088 37.7556 308.115 36.9325 309.248 36.2981C310.396 35.6638 311.506 35.3466 312.578 35.3466L312.94 35.8451C313.439 35.5128 313.733 35.3466 313.824 35.3466C315.002 35.3466 316.067 35.5128 317.018 35.8451C317.985 36.1622 318.695 36.5171 319.148 36.9098C319.616 37.2874 320.024 37.6423 320.371 37.9746C320.719 38.2918 320.945 38.4503 321.051 38.4503C321.051 38.7675 321.277 39.0469 321.73 39.2886C322.199 39.5151 322.433 39.7719 322.433 40.0588C322.644 40.1948 322.856 40.4742 323.067 40.8971C323.279 41.3048 323.384 41.5918 323.384 41.7579C323.384 41.909 323.377 42.0449 323.362 42.1657H322.886L321.957 53.697L321.527 54.218H322.433V54.7391H320.575L320.167 54.218V53.697C319.895 53.9386 319.578 54.1123 319.216 54.218L318.332 53.1533V53.697H315.432ZM342.822 43.6609V46.085C342.822 48.9999 342.505 51.0992 341.87 52.383C342.157 52.383 342.301 52.2093 342.301 51.8619V51.6807L342.709 51.3409C342.467 51.5825 342.346 51.9979 342.346 52.5869C342.346 53.1608 342.452 54.0066 342.663 55.1242C342.89 56.2419 343.011 56.9064 343.026 57.1178H342.595V56.2343C342.324 56.778 342.188 57.3444 342.188 57.9334V58.16L342.709 58.7943L342.618 57.6162H343.071V57.7975C343.071 59.0812 342.898 61.0069 342.55 63.5744C342.203 66.1269 342.029 68.3168 342.029 70.1443C342.029 71.9869 341.795 72.9384 341.327 72.9988L340.987 72.6363L340.443 72.7269L340.081 72.2285L339.084 72.659L339.152 72.591L338.155 71.6622L337.317 72.2738L336.773 72.2285L337.249 71.6622C337.249 71.345 337.287 70.8693 337.362 70.2349C337.453 69.6006 337.498 69.1173 337.498 68.785L337.09 69.0569L336.683 68.5585H337.045C336.667 68.0601 336.343 67.5315 336.071 66.9726L335.391 67.1086L334.87 66.7008L334.462 67.539H334.87L334.915 68.0374L334.576 67.9694L334.598 68.3546C334.598 68.6717 334.53 69.0644 334.394 69.5326C334.274 70.0008 334.13 70.2349 333.964 70.2349C333.813 70.2349 333.707 70.1141 333.647 69.8724C333.556 71.2317 333.345 72.372 333.012 73.2933L332.491 72.7722V73.0894C332.491 73.3311 332.408 73.5123 332.242 73.6331C332.031 73.754 331.683 73.8144 331.2 73.8144L331.155 73.2933C330.717 73.4443 330.15 73.5727 329.456 73.6784C328.927 73.0592 328.655 72.1002 328.64 70.8013C328.64 69.5024 328.633 68.7548 328.617 68.5585L328.98 68.6038L329.071 68.0374C328.799 67.9619 328.595 67.3729 328.459 66.2703C328.338 65.1527 328.263 64.541 328.232 64.4353C328.791 64.4353 329.071 63.8765 329.071 62.7589V62.3511L328.617 62.8495L328.527 61.1051C328.527 60.3952 328.58 59.489 328.685 58.3865C328.806 57.284 328.95 56.4911 329.116 56.0078H328.708L329.501 53.7423C329.501 53.1382 329.373 52.232 329.116 51.0237C328.874 49.8155 328.753 48.8791 328.753 48.2145C328.753 47.55 329.025 47.0667 329.569 46.7646C329.04 45.058 328.769 43.2078 328.753 41.2142L329.116 40.6705C328.844 40.5497 328.112 39.8549 326.918 38.5863C325.74 37.3025 324.97 36.6606 324.608 36.6606H324.472C324.472 36.2679 326.095 35.8979 329.342 35.5505C332.59 35.1881 335.376 35.0068 337.702 35.0068C337.929 35.0068 338.246 35.1881 338.654 35.5505C339.786 35.173 341.365 34.9842 343.388 34.9842L347.217 35.0068C345.359 36.1698 344.144 37.4535 343.57 38.8581C343.071 40.0513 342.822 41.6522 342.822 43.6609ZM334.689 58.6584L334.734 59.1794H334.326L334.485 60.9238C334.485 61.4826 334.342 61.9584 334.055 62.3511L334.077 62.8495L334.485 62.3511H336.977L336.864 60.2215L336.615 59.7005L336.773 58.6584C336.773 57.2538 336.592 56.5515 336.229 56.5515L336.615 56.0078H336.229L336.569 55.5547H336.184L336.139 54.9883C336.396 54.9883 336.524 54.8222 336.524 54.4899H336.116L336.003 51.9526C335.927 52.5114 335.686 53.5535 335.278 55.0789C334.885 56.5892 334.689 57.7824 334.689 58.6584ZM342.663 61.3769L342.46 61.2863C342.429 61.2863 342.414 61.3769 342.414 61.5582V61.9206C342.414 61.8904 342.527 61.6941 342.754 61.3316C342.724 61.3618 342.694 61.3769 342.663 61.3769ZM341.463 73.1121L341.236 72.9988L341.463 73.1121ZM339.039 72.7269C339.039 72.6816 339.054 72.659 339.084 72.659L339.039 72.7269ZM360.153 51.726C359.896 51.0464 359.496 50.7066 358.952 50.7066L358.522 50.1628L358.137 50.7066H357.298V51.6807C357.298 52.4057 357.162 52.9645 356.891 53.3572V55.3961H356.483V55.9624L356.891 56.4608V57.1178C356.891 57.1782 356.755 57.6615 356.483 58.5677L356.891 59.0888H357.298L357.276 60.063C357.276 60.4707 357.419 60.8483 357.706 61.1957V62.1245C357.706 62.8495 357.85 63.4158 358.137 63.8236H357.706V64.322L358.137 64.0502L358.522 64.8658L358.137 65.3642H358.522L359.337 66.4063V66.9273L359.745 66.4063H360.153L360.561 66.9273V66.4063C361.422 66.4063 362.101 66.0589 362.6 65.3642H362.826L362.6 63.2573H362.214C361.943 63.2573 361.58 63.4234 361.127 63.7557C360.674 64.0728 360.349 64.2616 360.153 64.322C360.153 63.5518 360.085 62.4039 359.949 60.8785C359.813 59.3531 359.745 58.2128 359.745 57.4577C359.821 57.4879 361.429 57.8579 364.571 58.5677C367.712 59.2776 369.396 59.6325 369.623 59.6325C369.139 60.6142 368.867 62.487 368.807 65.2509C368.762 68.045 368.565 69.812 368.218 70.5521C367.871 71.2921 367.417 71.6622 366.859 71.6622C365.907 72.4626 365.175 72.9912 364.661 73.248V72.9308C364.661 72.4173 364.518 72.1606 364.231 72.1606V71.6622L363.846 71.4356L363.415 72.1606L362.917 72.4324L362.6 72.1606L362.214 72.7269H361.807V72.1606L361.376 72.7269H361.807V73.248L361.376 73.5878V72.7269L360.968 73.248L360.153 72.1606H359.337V71.6622H358.952V72.1606C358.665 72.5382 358.522 73.0819 358.522 73.7917C357.978 73.7615 357.706 73.2178 357.706 72.1606L357.298 71.6622H356.891C356.86 72.0851 356.732 72.4551 356.505 72.7722C356.279 73.0894 355.992 73.248 355.645 73.248L355.259 72.7269H355.645V72.1606H354.852L354.444 71.6622C354.081 71.6622 353.81 71.1411 353.628 70.099L353.311 70.3935C352.903 70.3935 352.443 69.374 351.929 67.3351C351.733 66.5649 351.552 66.0816 351.385 65.8852C351.385 62.6682 350.63 59.1719 349.12 55.3961H349.55C349.279 55.094 348.901 53.41 348.418 50.3441C347.95 47.263 347.715 45.2392 347.715 44.2726C347.715 43.306 347.889 42.6339 348.236 42.2563V40.1948L350.026 38.6316H350.91C350.91 37.8462 351.318 37.1968 352.133 36.6833C352.964 36.1547 353.787 35.8904 354.602 35.8904C354.799 35.8904 355.018 35.9206 355.259 35.981C355.531 35.6336 356.015 35.4599 356.709 35.4599H356.891V35.981H357.298C357.298 35.6185 357.427 35.4373 357.683 35.4373L358.137 35.4599L357.298 37.0231L358.137 35.981L358.952 36.4794L358.522 35.981V35.4599L359.337 35.981C359.911 35.8148 360.221 35.7318 360.266 35.7318C363.181 35.7318 365.673 36.7059 367.742 38.6542C368.724 39.5906 369.502 40.7838 370.076 42.2337C370.65 43.6685 370.936 45.2543 370.936 46.9912C370.936 47.4292 370.68 48.7205 370.166 50.8651C369.668 53.0098 369.419 54.4974 369.419 55.3281C369.419 56.1588 369.555 56.7025 369.826 56.9593C368.815 56.9593 367.425 56.7931 365.658 56.4608C363.891 56.1286 362.607 55.9624 361.807 55.9624C361.52 55.6 361.376 55.245 361.376 54.8977V54.354H361.807L360.968 53.3572L361.376 52.7908H360.968L360.561 52.2471V51.4542L360.153 51.726ZM387.542 71.0958L386.546 71.0731L385.866 71.6169L384.96 70.5747V70.0084C384.658 69.6912 384.212 69.5326 383.623 69.5326H382.717L382.241 70.0084V70.5747C381.969 70.5747 381.743 70.839 381.562 71.3677C381.38 71.8963 381.161 72.1606 380.905 72.1606V72.6363C380.754 71.8208 380.451 70.3255 379.998 68.1507C379.047 63.7104 378.571 60.3197 378.571 57.9787C378.571 57.5105 378.586 57.1631 378.616 56.9366L378.186 56.4155L375.966 43.2758H376.419V42.7321H375.966C375.921 42.6566 375.822 42.4753 375.671 42.1884C375.535 41.8863 375.445 41.69 375.399 41.5994C375.354 41.5087 375.264 41.335 375.128 41.0783C374.992 40.8064 374.886 40.6176 374.81 40.5119C374.75 40.4062 374.644 40.2476 374.493 40.0362C374.357 39.8096 374.237 39.6435 374.131 39.5378C374.04 39.4321 373.919 39.2961 373.768 39.13C373.617 38.9487 373.474 38.8053 373.338 38.6995C372.885 38.3824 372.537 38.1634 372.296 38.0426H372.794C373.61 37.3478 375.029 36.7966 377.053 36.3888C379.983 35.7997 383.351 35.5052 387.157 35.5052C390.978 35.5052 395.185 36.0036 399.776 37.0004C399.172 37.665 398.409 38.8506 397.488 40.5572C396.582 42.2488 396.129 43.4797 396.129 44.25C396.129 45.0202 395.978 45.5715 395.675 45.9037L395.721 46.6514C395.721 47.8596 395.404 49.8834 394.769 52.7228C393.516 52.0281 392.557 51.6807 391.892 51.6807C391.228 51.6807 390.744 51.5146 390.442 51.1823C389.642 51.1823 388.955 51.1445 388.381 51.069C387.822 50.9784 387.278 50.8953 386.749 50.8198C386.236 50.7443 385.836 50.6839 385.549 50.6386C385.821 50.7896 385.957 51.5523 385.957 52.9267L385.866 55.3734H392.685V59.0435C392.685 59.4966 392.587 60.2064 392.391 61.173C392.194 62.1245 391.983 62.638 391.756 62.7136L390.442 61.6488H386.342L385.866 62.1472V65.8852L386.342 66.2477L386.749 65.8852L386.342 64.7978C387.052 64.8129 388.199 64.9035 389.785 65.0696C391.386 65.2358 392.625 65.3188 393.501 65.3188V65.8852L393.093 67.9468L392.685 68.5132L393.093 69.0116V69.5326H392.685V70.0084L393.093 70.5747C392.821 70.9523 392.685 71.3526 392.685 71.7754V73.18L392.277 72.6363H391.756V71.0958L391.303 70.5747H389.06C388.758 70.9221 388.252 71.0958 387.542 71.0958Z" fill="white" fill-opacity="0.6" shape-rendering="crispEdges"/>
</g>
<defs>
<filter id="filter0_d_3_7" x="117.605" y="34.1369" width="285.801" height="47.8965" filterUnits="userSpaceOnUse" color-interpolation-filters="sRGB">
<feFlood flood-opacity="0" result="BackgroundImageFix"/>
<feColorMatrix in="SourceAlpha" type="matrix" values="0 0 0 0 0 0 0 0 0 0 0 0 0 0 0 0 0 0 127 0" result="hardAlpha"/>
<feOffset dy="3.66463"/>
<feGaussianBlur stdDeviation="1.83232"/>
<feComposite in2="hardAlpha" operator="out"/>
<feColorMatrix type="matrix" values="0 0 0 0 0 0 0 0 0 0 0 0 0 0 0 0 0 0 0.25 0"/>
<feBlend mode="normal" in2="BackgroundImageFix" result="effect1_dropShadow_3_7"/>
<feBlend mode="normal" in="SourceGraphic" in2="effect1_dropShadow_3_7" result="shape"/>
</filter>
<filter id="filter1_d_3_7" x="119.636" y="34.9842" width="283.778" height="47.5575" filterUnits="userSpaceOnUse" color-interpolation-filters="sRGB">
<feFlood flood-opacity="0" result="BackgroundImageFix"/>
<feColorMatrix in="SourceAlpha" type="matrix" values="0 0 0 0 0 0 0 0 0 0 0 0 0 0 0 0 0 0 127 0" result="hardAlpha"/>
<feOffset dy="3.63869"/>
<feGaussianBlur stdDeviation="1.81935"/>
<feComposite in2="hardAlpha" operator="out"/>
<feColorMatrix type="matrix" values="0 0 0 0 0 0 0 0 0 0 0 0 0 0 0 0 0 0 0.25 0"/>
<feBlend mode="normal" in2="BackgroundImageFix" result="effect1_dropShadow_3_7"/>
<feBlend mode="normal" in="SourceGraphic" in2="effect1_dropShadow_3_7" result="shape"/>
</filter>
</defs>
</svg>
