<svg width="92" height="104" viewBox="0 0 92 104" fill="none" xmlns="http://www.w3.org/2000/svg">
<path d="M77.5649 43.4439C76.4286 46.1427 75.3455 50.9899 74.3157 57.9855C73.3214 64.9456 72.0431 69.9526 70.4806 73.0065L70.5871 75.1371C70.5871 76.309 70.2498 77.25 69.5751 77.9602C69.5751 79.8778 69.1667 82.2925 68.3499 85.2044C67.5687 88.0807 66.681 90.1581 65.6867 91.4365V92.7149H66.6987C65.6334 93.5671 65.1362 95.3426 65.2073 98.0414C65.2073 98.9647 64.8166 99.9057 64.0354 100.865C63.2542 101.859 61.9758 102.605 60.2003 103.102L59.348 100.651C59.5966 100.332 59.8807 99.8525 60.2003 99.2133C60.5199 98.5741 60.875 98.0414 61.2656 97.6153C59.3835 97.6153 58.3537 98.2367 58.1762 99.4796C57.9986 100.758 56.7913 101.397 54.5541 101.397L53.8084 100.225H52.53L51.1983 99.6394L51.6777 98.0414L50.4526 99.4264V99.5329L49.7069 100.651C48.6416 100.19 48.1089 99.3731 48.1089 98.2012C48.1089 97.0649 47.7716 95.7688 47.0969 94.3128C46.4577 92.8569 46.1381 91.8981 46.1381 91.4365C46.1381 86.8556 45.4811 82.7541 44.1672 79.132L45.126 77.9602C43.4925 77.9602 42.6225 75.1549 42.516 69.5442C42.4805 67.307 42.4095 65.9931 42.3029 65.6025C41.2731 62.1225 40.6162 58.0388 40.3321 53.3514C40.0835 48.6284 39.8705 43.8168 39.6929 38.9163C39.5509 34.0158 39.0892 29.8966 38.308 26.5586L37.2427 27.7837V22.8833C35.7512 20.7526 34.0112 18.9771 32.0226 17.5567C30.0695 16.1363 28.1697 15.426 26.3232 15.426C27.2464 15.3195 30.1228 15.0354 34.9522 14.5738C47.452 13.4374 53.9859 12.745 54.5541 12.4964L56.1521 14.7868L54.5541 13.8281C53.8439 14.6803 53.4888 16.083 53.4888 18.0361V19.9536L54.5541 19.421V20.22L53.8616 21.1788C54.1457 23.2029 54.6784 24.4635 55.4596 24.9606L54.5541 26.1325V28.636C54.5541 31.1217 54.8382 34.7616 55.4063 39.5555C55.9745 44.3139 56.3119 47.5454 56.4184 49.2499L55.4596 48.2378C55.4596 50.7236 55.6194 54.4344 55.939 59.3704C56.2586 64.2709 56.4184 67.964 56.4184 70.4497L58.336 64.3774L57.3772 63.1523C57.5547 62.7972 58.8864 55.1802 61.3721 40.3012C63.8579 25.3868 65.1007 17.7875 65.1007 17.5034L66.166 15.426L66.0063 13.8281H65.1007V12.4964L66.9118 13.8281L68.0304 12.4964C68.9891 13.4552 73.7653 13.9346 82.3589 13.9346H86.993C87.5967 13.9346 88.4312 13.9701 89.4965 14.0411C90.5618 14.0766 91.3963 14.0944 92 14.0944C90.4731 14.2719 88.8928 15.4438 87.2593 17.6099C85.6259 19.7761 84.1699 22.4216 82.8915 25.5466C80.3703 31.8319 78.5948 37.78 77.5649 43.3906V43.4439Z" fill="black"/>
<path fill-rule="evenodd" clip-rule="evenodd" d="M41.077 75.675C40.5462 77.0655 39.975 78.1539 39.3635 78.9401V80.2184H40.3755C39.3102 81.0707 38.8131 82.8462 38.8841 85.545C38.8841 86.4683 38.4935 87.4093 37.7123 88.3681C36.931 89.3624 35.6526 90.1081 33.8771 90.6053L33.0249 88.1551C33.2734 87.8355 33.5575 87.3561 33.8771 86.7169C34.1967 86.0777 34.5518 85.545 34.9424 85.1189C33.0604 85.1189 32.0306 85.7403 31.853 86.9832C31.6755 88.2616 30.4681 88.9008 28.2309 88.9008L27.4852 87.7289H26.2068L24.8752 87.143L25.3546 85.545L24.1294 86.9299V87.0365L23.3837 88.1551C22.3184 87.6934 21.7858 86.8767 21.7858 85.7048C21.7858 84.5685 21.4484 83.2724 20.7737 81.8164C20.1345 80.3605 19.8149 79.4017 19.8149 78.9401C19.8149 74.3592 19.158 70.2577 17.8441 66.6356L18.8029 65.4638C17.1694 65.4638 16.2994 62.6585 16.1928 57.0478C16.1573 54.8106 16.0863 53.4967 15.9798 53.1061C14.95 49.6261 14.293 45.5423 14.0089 40.8549C13.7604 36.132 13.5473 31.3203 13.3697 26.4199C13.2277 21.5194 12.7661 17.4002 11.9848 14.0622L10.9195 15.2873V10.3869C9.42806 8.25621 7.68804 6.48068 5.69945 5.06026C3.74637 3.63984 1.84655 2.92963 0 2.92963C0.923275 2.82309 3.79963 2.53901 8.62908 2.07737C21.1288 0.941032 27.6628 0.248575 28.2309 0L29.8289 2.29043L28.2309 1.33165C27.5207 2.1839 27.1656 3.58657 27.1656 5.53965V7.45723L28.2309 6.92457V7.72356L27.5385 8.68234C27.8226 10.7064 28.3552 11.9671 29.1364 12.4642L28.2309 13.6361V16.1396C28.2309 18.1707 28.4206 20.9725 28.8 24.5449C26.8313 24.7374 25.5693 24.8658 25.0139 24.9298C26.3022 24.9298 27.6163 25.2755 28.9564 25.9668C28.9969 26.324 29.0392 26.6881 29.0832 27.0591C29.6513 31.8175 29.9887 35.049 30.0952 36.7535L29.1364 35.7414C29.1364 38.2272 29.2962 41.938 29.6158 46.874C29.9354 51.7745 30.0952 55.4676 30.0952 57.9533L32.0128 51.881L31.054 50.6559C31.22 50.324 32.3942 43.6477 34.5767 30.6271C35.0497 31.1841 35.502 31.7707 35.9334 32.3871V37.2875L36.9988 36.0624C37.78 39.4004 38.2416 43.5196 38.3837 48.4201C38.5612 53.3206 38.7743 58.1322 39.0229 62.8552C39.307 67.5426 39.9639 71.6263 40.9937 75.1063C41.0244 75.219 41.0522 75.4086 41.077 75.675ZM35.7009 23.8896C46.8607 22.8646 52.7087 22.2348 53.2449 22.0002L53.3626 22.169C54.2471 19.2126 55.3157 16.173 56.5684 13.0501C57.8468 9.92521 59.3027 7.27967 60.9362 5.11353C62.5697 2.94738 64.1499 1.77553 65.6768 1.59798C65.0732 1.59798 64.2387 1.58022 63.1734 1.54471C62.108 1.47369 61.2735 1.43818 60.6699 1.43818H56.0357C47.4422 1.43818 42.666 0.958787 41.7072 0L40.5886 1.33165L38.7776 0V1.33165H39.6831L39.8429 2.92963L38.7776 5.00699C38.7776 5.26505 37.752 11.5592 35.7009 23.8896ZM52.8596 23.9126C52.6374 24.7126 52.4291 25.5064 52.2345 26.294C52.3268 25.3202 52.5351 24.5264 52.8596 23.9126Z" fill="#FFD470"/>
</svg>
